Antonio-Regular-FF.ufo
<glyph name="exclam" format="1">
  <advance width="528"/>
  <unicode hex="0021"/>
  <outline>
    <contour>
      <point x="151" y="0" type="line"/>
      <point x="373" y="0" type="line"/>
      <point x="373" y="228" type="line"/>
      <point x="151" y="228" type="line"/>
    </contour>
    <contour>
      <point x="222" y="395" type="line"/>
      <point x="306" y="395" type="line"/>
      <point x="381" y="1760" type="line"/>
      <point x="146" y="1760" type="line"/>
    </contour>
  </outline>
</glyph>
<glyph name="quotedbl" format="1">
  <advance width="744"/>
  <unicode hex="0022"/>
  <outline>
    <contour>
      <point x="161" y="1058" type="line"/>
      <point x="231" y="1058" type="line"/>
      <point x="350" y="1760" type="line"/>
      <point x="161" y="1760" type="line"/>
    </contour>
    <contour>
      <point x="488" y="1058" type="line"/>
      <point x="558" y="1058" type="line"/>
      <point x="677" y="1760" type="line"/>
      <point x="488" y="1760" type="line"/>
    </contour>
  </outline>
</glyph>
<glyph name="numbersign" format="1">
  <advance width="854"/>
  <unicode hex="0023"/>
  <outline>
    <contour>
      <point x="657" y="1760" type="line"/>
      <point x="795" y="1760" type="line"/>
      <point x="713" y="1170" type="line"/>
      <point x="863" y="1170" type="line"/>
      <point x="863" y="1079" type="line"/>
      <point x="700" y="1079" type="line"/>
      <point x="649" y="717" type="line"/>
      <point x="827" y="717" type="line"/>
      <point x="827" y="626" type="line"/>
      <point x="638" y="626" type="line"/>
      <point x="551" y="0" type="line"/>
      <point x="413" y="0" type="line"/>
      <point x="498" y="626" type="line"/>
      <point x="330" y="626" type="line"/>
      <point x="245" y="0" type="line"/>
      <point x="107" y="0" type="line"/>
      <point x="193" y="626" type="line"/>
      <point x="38" y="626" type="line"/>
      <point x="38" y="717" type="line"/>
      <point x="204" y="717" type="line"/>
      <point x="255" y="1079" type="line"/>
      <point x="74" y="1079" type="line"/>
      <point x="74" y="1170" type="line"/>
      <point x="268" y="1170" type="line"/>
      <point x="351" y="1760" type="line"/>
      <point x="489" y="1760" type="line"/>
      <point x="405" y="1170" type="line"/>
      <point x="572" y="1170" type="line"/>
    </contour>
    <contour>
      <point x="511" y="716" type="line"/>
      <point x="561" y="1075" type="line"/>
      <point x="392" y="1075" type="line"/>
      <point x="340" y="716" type="line"/>
    </contour>
  </outline>
</glyph>
<glyph name="dollar" format="1">
  <advance width="804"/>
  <unicode hex="0024"/>
  <outline>
    <contour>
      <point x="364" y="-246" type="line"/>
      <point x="474" y="-246" type="line"/>
      <point x="474" y="34" type="line"/>
      <point x="364" y="34" type="line"/>
    </contour>
    <contour>
      <point x="349" y="1485" type="line"/>
      <point x="459" y="1485" type="line"/>
      <point x="459" y="1760" type="line"/>
      <point x="349" y="1760" type="line"/>
    </contour>
    <component base="s" yOffset="10"/>
  </outline>
</glyph>
<glyph name="percent" format="1">
  <advance width="2178"/>
  <unicode hex="0025"/>
  <outline>
    <contour>
      <point x="476" y="742" type="curve" smooth="yes"/>
      <point x="379" y="742"/>
      <point x="351" y="792"/>
      <point x="351" y="937" type="curve" smooth="yes"/>
      <point x="351" y="1433" type="line" smooth="yes"/>
      <point x="351" y="1574"/>
      <point x="378" y="1621"/>
      <point x="476" y="1621" type="curve" smooth="yes"/>
      <point x="574" y="1621"/>
      <point x="601" y="1575"/>
      <point x="601" y="1433" type="curve" smooth="yes"/>
      <point x="601" y="937" type="line" smooth="yes"/>
      <point x="601" y="792"/>
      <point x="573" y="742"/>
    </contour>
    <contour>
      <point x="476" y="581" type="curve" smooth="yes"/>
      <point x="707" y="581"/>
      <point x="787" y="692"/>
      <point x="787" y="1009" type="curve" smooth="yes"/>
      <point x="787" y="1364" type="line" smooth="yes"/>
      <point x="787" y="1675"/>
      <point x="710" y="1782"/>
      <point x="476" y="1782" type="curve" smooth="yes"/>
      <point x="243" y="1782"/>
      <point x="166" y="1675"/>
      <point x="166" y="1364" type="curve" smooth="yes"/>
      <point x="166" y="1009" type="line" smooth="yes"/>
      <point x="166" y="692"/>
      <point x="246" y="581"/>
    </contour>
    <contour>
      <point x="1690" y="141" type="curve" smooth="yes"/>
      <point x="1593" y="141"/>
      <point x="1565" y="191"/>
      <point x="1565" y="336" type="curve" smooth="yes"/>
      <point x="1565" y="832" type="line" smooth="yes"/>
      <point x="1565" y="973"/>
      <point x="1592" y="1020"/>
      <point x="1690" y="1020" type="curve" smooth="yes"/>
      <point x="1788" y="1020"/>
      <point x="1815" y="974"/>
      <point x="1815" y="832" type="curve" smooth="yes"/>
      <point x="1815" y="336" type="line" smooth="yes"/>
      <point x="1815" y="191"/>
      <point x="1786" y="141"/>
    </contour>
    <contour>
      <point x="1690" y="-20" type="curve" smooth="yes"/>
      <point x="1920" y="-20"/>
      <point x="2000" y="91"/>
      <point x="2000" y="408" type="curve" smooth="yes"/>
      <point x="2000" y="763" type="line" smooth="yes"/>
      <point x="2000" y="1074"/>
      <point x="1923" y="1181"/>
      <point x="1690" y="1181" type="curve" smooth="yes"/>
      <point x="1456" y="1181"/>
      <point x="1379" y="1074"/>
      <point x="1379" y="763" type="curve" smooth="yes"/>
      <point x="1379" y="408" type="line" smooth="yes"/>
      <point x="1379" y="91"/>
      <point x="1459" y="-20"/>
    </contour>
    <contour>
      <point x="652" y="0" type="line"/>
      <point x="831" y="0" type="line"/>
      <point x="1531" y="1760" type="line"/>
      <point x="1360" y="1760" type="line"/>
    </contour>
  </outline>
</glyph>
<glyph name="ampersand" format="1">
  <advance width="958"/>
  <unicode hex="0026"/>
  <outline>
    <contour>
      <point x="373" y="-20" type="curve" smooth="yes"/>
      <point x="521" y="-20"/>
      <point x="595" y="57"/>
      <point x="660" y="170" type="curve"/>
      <point x="741" y="0" type="line"/>
      <point x="923" y="0" type="line"/>
      <point x="770" y="328" type="line"/>
      <point x="817" y="437"/>
      <point x="872" y="551"/>
      <point x="950" y="651" type="curve"/>
      <point x="863" y="797" type="line"/>
      <point x="791" y="704"/>
      <point x="736" y="607"/>
      <point x="691" y="517" type="curve"/>
      <point x="533" y="898" type="line"/>
      <point x="648" y="1053"/>
      <point x="762" y="1237"/>
      <point x="762" y="1431" type="curve" smooth="yes"/>
      <point x="762" y="1652"/>
      <point x="687" y="1782"/>
      <point x="481" y="1782" type="curve" smooth="yes"/>
      <point x="302" y="1782"/>
      <point x="188" y="1661"/>
      <point x="188" y="1434" type="curve" smooth="yes"/>
      <point x="188" y="1339"/>
      <point x="250" y="1149"/>
      <point x="333" y="937" type="curve"/>
      <point x="198" y="771"/>
      <point x="69" y="595"/>
      <point x="69" y="337" type="curve" smooth="yes"/>
      <point x="69" y="95"/>
      <point x="204" y="-20"/>
    </contour>
    <contour>
      <point x="401" y="158" type="curve" smooth="yes"/>
      <point x="290" y="158"/>
      <point x="253" y="244"/>
      <point x="260" y="385" type="curve"/>
      <point x="268" y="521"/>
      <point x="326" y="652"/>
      <point x="408" y="770" type="curve"/>
      <point x="579" y="354" type="line"/>
      <point x="522" y="234"/>
      <point x="482" y="158"/>
    </contour>
    <contour>
      <point x="464" y="1072" type="curve"/>
      <point x="411" y="1223"/>
      <point x="373" y="1366"/>
      <point x="373" y="1432" type="curve" smooth="yes"/>
      <point x="373" y="1506"/>
      <point x="371" y="1618"/>
      <point x="489" y="1618" type="curve" smooth="yes"/>
      <point x="580" y="1618"/>
      <point x="599" y="1563"/>
      <point x="599" y="1436" type="curve" smooth="yes"/>
      <point x="599" y="1306"/>
      <point x="542" y="1179"/>
    </contour>
  </outline>
</glyph>
<glyph name="quotesingle" format="1">
  <advance width="413"/>
  <unicode hex="0027"/>
  <outline>
    <contour>
      <point x="112" y="1760" type="line"/>
      <point x="309" y="1760" type="line"/>
      <point x="244" y="1125" type="line"/>
      <point x="172" y="1125" type="line"/>
    </contour>
  </outline>
</glyph>
<glyph name="parenleft" format="1">
  <advance width="560"/>
  <unicode hex="0028"/>
  <outline>
    <contour>
      <point x="478" y="-242" type="curve"/>
      <point x="478" y="-87" type="line"/>
      <point x="358" y="-87"/>
      <point x="339" y="-68"/>
      <point x="339" y="184" type="curve" smooth="yes"/>
      <point x="339" y="1356" type="line" smooth="yes"/>
      <point x="339" y="1609"/>
      <point x="358" y="1627"/>
      <point x="478" y="1627" type="curve"/>
      <point x="478" y="1782" type="line"/>
      <point x="211" y="1782"/>
      <point x="134" y="1715"/>
      <point x="134" y="1352" type="curve" smooth="yes"/>
      <point x="134" y="188" type="line" smooth="yes"/>
      <point x="134" y="-175"/>
      <point x="211" y="-242"/>
    </contour>
  </outline>
</glyph>
<glyph name="parenright" format="1">
  <advance width="560"/>
  <unicode hex="0029"/>
  <outline>
    <contour>
      <point x="82" y="-242" type="line"/>
      <point x="349" y="-242"/>
      <point x="426" y="-175"/>
      <point x="426" y="188" type="curve" smooth="yes"/>
      <point x="426" y="1352" type="line" smooth="yes"/>
      <point x="426" y="1715"/>
      <point x="349" y="1782"/>
      <point x="82" y="1782" type="curve"/>
      <point x="82" y="1627" type="line"/>
      <point x="202" y="1627"/>
      <point x="221" y="1609"/>
      <point x="221" y="1356" type="curve" smooth="yes"/>
      <point x="221" y="184" type="line" smooth="yes"/>
      <point x="221" y="-68"/>
      <point x="202" y="-87"/>
      <point x="82" y="-87" type="curve"/>
    </contour>
  </outline>
</glyph>
<glyph name="plus" format="1">
  <advance width="680"/>
  <unicode hex="002B"/>
  <outline>
    <contour>
      <point x="264" y="1137" type="line"/>
      <point x="413" y="1137" type="line"/>
      <point x="413" y="891" type="line"/>
      <point x="640" y="891" type="line"/>
      <point x="640" y="751" type="line"/>
      <point x="413" y="751" type="line"/>
      <point x="413" y="501" type="line"/>
      <point x="264" y="501" type="line"/>
      <point x="264" y="751" type="line"/>
      <point x="40" y="751" type="line"/>
      <point x="40" y="891" type="line"/>
      <point x="264" y="891" type="line"/>
    </contour>
  </outline>
</glyph>
<glyph name="comma" format="1">
  <advance width="462"/>
  <unicode hex="002C"/>
  <outline>
    <contour>
      <point x="119" y="235" type="line"/>
      <point x="377" y="235" type="line"/>
      <point x="377" y="9" type="line"/>
      <point x="276" y="-344" type="line"/>
      <point x="170" y="-344" type="line"/>
      <point x="243" y="0" type="line"/>
      <point x="119" y="0" type="line"/>
    </contour>
  </outline>
</glyph>
<glyph name="hyphen" format="1">
  <advance width="696"/>
  <unicode hex="002D"/>
  <outline>
    <contour>
      <point x="88" y="908" type="line"/>
      <point x="540" y="908" type="line"/>
      <point x="540" y="763" type="line"/>
      <point x="88" y="763" type="line"/>
    </contour>
  </outline>
</glyph>
<glyph name="period" format="1">
  <advance width="532"/>
  <unicode hex="002E"/>
  <outline>
    <contour>
      <point x="171" y="198" type="line"/>
      <point x="346" y="198" type="line"/>
      <point x="346" y="0" type="line"/>
      <point x="171" y="0" type="line"/>
    </contour>
  </outline>
</glyph>
<glyph name="slash" format="1">
  <advance width="730"/>
  <unicode hex="002F"/>
  <outline>
    <contour>
      <point x="54" y="0" type="line"/>
      <point x="236" y="0" type="line"/>
      <point x="676" y="1768" type="line"/>
      <point x="493" y="1768" type="line"/>
    </contour>
  </outline>
</glyph>
<glyph name="one" format="1">
  <advance width="854"/>
  <unicode hex="0031"/>
  <outline>
    <contour>
      <point x="453" y="1760" type="curve"/>
      <point x="599" y="1760" type="line"/>
      <point x="599" y="0" type="line"/>
      <point x="393" y="0" type="line"/>
      <point x="393" y="1483" type="line"/>
      <point x="345" y="1426"/>
      <point x="199" y="1377"/>
      <point x="125" y="1377" type="curve"/>
      <point x="125" y="1541" type="line"/>
      <point x="231" y="1556"/>
      <point x="397" y="1628"/>
    </contour>
  </outline>
</glyph>
<glyph name="two" format="1">
  <advance width="854"/>
  <unicode hex="0032"/>
  <outline>
    <contour>
      <point x="162" y="1189" type="line" smooth="yes"/>
      <point x="162" y="1569"/>
      <point x="190" y="1779"/>
      <point x="497" y="1779" type="curve" smooth="yes"/>
      <point x="730" y="1779"/>
      <point x="786" y="1576"/>
      <point x="786" y="1293" type="curve" smooth="yes"/>
      <point x="786" y="1118"/>
      <point x="754" y="989"/>
      <point x="676" y="846" type="curve"/>
      <point x="516" y="558" type="line" smooth="yes"/>
      <point x="404" y="357"/>
      <point x="379" y="298"/>
      <point x="379" y="155" type="curve"/>
      <point x="759" y="155" type="line"/>
      <point x="759" y="0" type="line"/>
      <point x="174" y="0" type="line"/>
      <point x="174" y="98" type="line" smooth="yes"/>
      <point x="174" y="299"/>
      <point x="218" y="424"/>
      <point x="354" y="665" type="curve" smooth="yes"/>
      <point x="516" y="952" type="line"/>
      <point x="573" y="1059"/>
      <point x="590" y="1188"/>
      <point x="590" y="1310" type="curve" smooth="yes"/>
      <point x="590" y="1564"/>
      <point x="564" y="1604"/>
      <point x="482" y="1604" type="curve" smooth="yes"/>
      <point x="398" y="1604"/>
      <point x="364" y="1562"/>
      <point x="364" y="1294" type="curve" smooth="yes"/>
      <point x="364" y="1065" type="line"/>
      <point x="162" y="1065" type="line"/>
    </contour>
  </outline>
</glyph>
<glyph name="three" format="1">
  <advance width="854"/>
  <unicode hex="0033"/>
  <outline>
    <contour>
      <point x="112" y="1329" type="line" smooth="yes"/>
      <point x="112" y="1636"/>
      <point x="192" y="1779"/>
      <point x="434" y="1779" type="curve" smooth="yes"/>
      <point x="675" y="1779"/>
      <point x="768" y="1624"/>
      <point x="768" y="1319" type="curve" smooth="yes"/>
      <point x="768" y="1124"/>
      <point x="717" y="974"/>
      <point x="590" y="927" type="curve"/>
      <point x="722" y="867"/>
      <point x="772" y="690"/>
      <point x="772" y="485" type="curve" smooth="yes"/>
      <point x="772" y="148"/>
      <point x="679" y="-20"/>
      <point x="429" y="-20" type="curve" smooth="yes"/>
      <point x="187" y="-20"/>
      <point x="108" y="131"/>
      <point x="108" y="464" type="curve" smooth="yes"/>
      <point x="108" y="552" type="line"/>
      <point x="303" y="552" type="line"/>
      <point x="303" y="471" type="line" smooth="yes"/>
      <point x="303" y="234"/>
      <point x="319" y="155"/>
      <point x="434" y="155" type="curve" smooth="yes"/>
      <point x="549" y="155"/>
      <point x="567" y="250"/>
      <point x="567" y="487" type="curve" smooth="yes"/>
      <point x="567" y="753"/>
      <point x="530" y="841"/>
      <point x="393" y="841" type="curve" smooth="yes"/>
      <point x="344" y="841" type="line"/>
      <point x="344" y="1006" type="line"/>
      <point x="391" y="1006" type="line" smooth="yes"/>
      <point x="525" y="1006"/>
      <point x="565" y="1062"/>
      <point x="565" y="1319" type="curve" smooth="yes"/>
      <point x="565" y="1558"/>
      <point x="517" y="1604"/>
      <point x="435" y="1604" type="curve" smooth="yes"/>
      <point x="351" y="1604"/>
      <point x="310" y="1542"/>
      <point x="310" y="1316" type="curve" smooth="yes"/>
      <point x="310" y="1274" type="line"/>
      <point x="112" y="1274" type="line"/>
    </contour>
  </outline>
</glyph>
<glyph name="four" format="1">
  <advance width="854"/>
  <unicode hex="0034"/>
  <outline>
    <contour>
      <point x="472" y="1760" type="line"/>
      <point x="685" y="1760" type="line"/>
      <point x="685" y="496" type="line"/>
      <point x="830" y="496" type="line"/>
      <point x="830" y="332" type="line"/>
      <point x="685" y="332" type="line"/>
      <point x="685" y="0" type="line"/>
      <point x="497" y="0" type="line"/>
      <point x="497" y="332" type="line"/>
      <point x="81" y="332" type="line"/>
      <point x="81" y="477" type="line"/>
    </contour>
    <contour>
      <point x="497" y="496" type="line"/>
      <point x="497" y="1412" type="line"/>
      <point x="251" y="496" type="line"/>
    </contour>
  </outline>
</glyph>
<glyph name="five" format="1">
  <advance width="854"/>
  <unicode hex="0035"/>
  <outline>
    <contour>
      <point x="450" y="-20" type="curve" smooth="yes"/>
      <point x="718.49399507" y="-20.0"/>
      <point x="752.682016578" y="146.854253901"/>
      <point x="755.741476794" y="584.241770434" type="curve" smooth="yes"/>
      <point x="755.929560946" y="611.13071632"/>
      <point x="756.0" y="639.042096615"/>
      <point x="756" y="668" type="curve" smooth="yes"/>
      <point x="756" y="1116"/>
      <point x="677" y="1233"/>
      <point x="503" y="1233" type="curve" smooth="yes"/>
      <point x="438" y="1233"/>
      <point x="372" y="1206"/>
      <point x="350" y="1163" type="curve"/>
      <point x="350" y="1574" type="line"/>
      <point x="714" y="1574" type="line"/>
      <point x="714" y="1760" type="line"/>
      <point x="161" y="1760" type="line"/>
      <point x="161" y="887" type="line"/>
      <point x="339" y="871" type="line"/>
      <point x="339" y="999"/>
      <point x="385" y="1058"/>
      <point x="452" y="1058" type="curve" smooth="yes"/>
      <point x="535" y="1058"/>
      <point x="557" y="985"/>
      <point x="557" y="851" type="curve" smooth="yes"/>
      <point x="557" y="326" type="line" smooth="yes"/>
      <point x="557" y="210"/>
      <point x="526" y="154"/>
      <point x="450" y="154" type="curve" smooth="yes"/>
      <point x="365" y="154"/>
      <point x="343" y="223"/>
      <point x="343" y="315" type="curve" smooth="yes"/>
      <point x="343" y="510" type="line"/>
      <point x="143" y="510" type="line"/>
      <point x="143" y="316" type="line" smooth="yes"/>
      <point x="143" y="132"/>
      <point x="216" y="-20"/>
    </contour>
  </outline>
</glyph>
<glyph name="six" format="1">
  <advance width="854"/>
  <unicode hex="0036"/>
  <outline>
    <contour>
      <point x="321" y="460" type="line" smooth="yes"/>
      <point x="321" y="245"/>
      <point x="346" y="157"/>
      <point x="455" y="157" type="curve" smooth="yes"/>
      <point x="571" y="157"/>
      <point x="586" y="237"/>
      <point x="586" y="451" type="curve" smooth="yes"/>
      <point x="586" y="582" type="line" smooth="yes"/>
      <point x="586" y="840"/>
      <point x="575" y="932"/>
      <point x="459" y="932" type="curve" smooth="yes"/>
      <point x="388" y="932"/>
      <point x="321" y="885"/>
      <point x="321" y="885" type="curve"/>
    </contour>
    <contour>
      <point x="774" y="507" type="line" smooth="yes"/>
      <point x="774" y="193"/>
      <point x="743" y="-21"/>
      <point x="460" y="-21" type="curve" smooth="yes"/>
      <point x="171" y="-21"/>
      <point x="124" y="172"/>
      <point x="124" y="494" type="curve" smooth="yes"/>
      <point x="124" y="1234" type="line" smooth="yes"/>
      <point x="124" y="1612"/>
      <point x="187" y="1779"/>
      <point x="450" y="1779" type="curve" smooth="yes"/>
      <point x="669" y="1779"/>
      <point x="748" y="1659"/>
      <point x="748" y="1329" type="curve" smooth="yes"/>
      <point x="748" y="1246" type="line"/>
      <point x="564" y="1246" type="line"/>
      <point x="564" y="1299" type="line" smooth="yes"/>
      <point x="564" y="1571"/>
      <point x="541" y="1604"/>
      <point x="434" y="1604" type="curve" smooth="yes"/>
      <point x="319" y="1604"/>
      <point x="321" y="1497"/>
      <point x="321" y="1248" type="curve" smooth="yes"/>
      <point x="321" y="1043" type="line"/>
      <point x="355" y="1071"/>
      <point x="417" y="1096"/>
      <point x="485" y="1096" type="curve" smooth="yes"/>
      <point x="729" y="1096"/>
      <point x="774" y="916"/>
      <point x="774" y="565" type="curve" smooth="yes"/>
    </contour>
  </outline>
</glyph>
<glyph name="seven" format="1">
  <advance width="854"/>
  <unicode hex="0037"/>
  <outline>
    <contour>
      <point x="84" y="1760" type="line"/>
      <point x="786" y="1760" type="line"/>
      <point x="786" y="1611" type="line"/>
      <point x="782" y="1570"/>
      <point x="703" y="1388"/>
      <point x="626" y="1113" type="curve"/>
      <point x="541" y="820"/>
      <point x="455" y="430"/>
      <point x="428" y="0" type="curve"/>
      <point x="207" y="0" type="line"/>
      <point x="243" y="480"/>
      <point x="352" y="880"/>
      <point x="447" y="1183" type="curve"/>
      <point x="520" y="1429"/>
      <point x="583" y="1577"/>
      <point x="585" y="1587" type="curve"/>
      <point x="84" y="1587" type="line"/>
    </contour>
  </outline>
</glyph>
<glyph name="nine" format="1">
  <advance width="854"/>
  <unicode hex="0039"/>
  <outline>
    <contour>
      <point x="427" y="-21" type="curve" smooth="yes"/>
      <point x="690" y="-21"/>
      <point x="753" y="146"/>
      <point x="753" y="524" type="curve" smooth="yes"/>
      <point x="753" y="1264" type="line" smooth="yes"/>
      <point x="753" y="1586"/>
      <point x="706" y="1779"/>
      <point x="417" y="1779" type="curve" smooth="yes"/>
      <point x="134" y="1779"/>
      <point x="103" y="1565"/>
      <point x="103" y="1251" type="curve" smooth="yes"/>
      <point x="103" y="1193" type="line" smooth="yes"/>
      <point x="103" y="842"/>
      <point x="148" y="662"/>
      <point x="392" y="662" type="curve" smooth="yes"/>
      <point x="460" y="662"/>
      <point x="521" y="687"/>
      <point x="555" y="715" type="curve"/>
      <point x="555" y="510" type="line" smooth="yes"/>
      <point x="555" y="261"/>
      <point x="558" y="154"/>
      <point x="443" y="154" type="curve" smooth="yes"/>
      <point x="336" y="154"/>
      <point x="313" y="187"/>
      <point x="313" y="459" type="curve" smooth="yes"/>
      <point x="313" y="512" type="line"/>
      <point x="129" y="512" type="line"/>
      <point x="129" y="429" type="line" smooth="yes"/>
      <point x="129" y="99"/>
      <point x="208" y="-21"/>
    </contour>
    <contour>
      <point x="417" y="826" type="curve" smooth="yes"/>
      <point x="301" y="826"/>
      <point x="290" y="918"/>
      <point x="290" y="1176" type="curve" smooth="yes"/>
      <point x="290" y="1307" type="line" smooth="yes"/>
      <point x="290" y="1521"/>
      <point x="309" y="1601"/>
      <point x="425" y="1601" type="curve" smooth="yes"/>
      <point x="534" y="1601"/>
      <point x="555" y="1513"/>
      <point x="555" y="1298" type="curve" smooth="yes"/>
      <point x="555" y="873" type="line"/>
      <point x="555" y="873"/>
      <point x="488" y="826"/>
    </contour>
  </outline>
</glyph>
<glyph name="colon" format="1">
  <advance width="489"/>
  <unicode hex="003A"/>
  <outline>
    <contour>
      <point x="132" y="1307" type="line"/>
      <point x="357" y="1307" type="line"/>
      <point x="357" y="1047" type="line"/>
      <point x="132" y="1047" type="line"/>
    </contour>
    <contour>
      <point x="132" y="530" type="line"/>
      <point x="357" y="530" type="line"/>
      <point x="357" y="270" type="line"/>
      <point x="132" y="270" type="line"/>
    </contour>
  </outline>
</glyph>
<glyph name="semicolon" format="1">
  <advance width="561"/>
  <unicode hex="003B"/>
  <outline>
    <contour>
      <point x="202" y="534" type="line"/>
      <point x="428" y="534" type="line"/>
      <point x="428" y="291" type="line"/>
      <point x="314" y="-103" type="line"/>
      <point x="190" y="-103" type="line"/>
      <point x="276" y="282" type="line"/>
      <point x="202" y="282" type="line"/>
    </contour>
    <contour>
      <point x="202" y="1234" type="line"/>
      <point x="424" y="1234" type="line"/>
      <point x="424" y="954" type="line"/>
      <point x="202" y="954" type="line"/>
    </contour>
  </outline>
</glyph>
<glyph name="less" format="1">
  <advance width="730"/>
  <unicode hex="003C"/>
  <outline>
    <contour>
      <point x="64" y="860" type="line"/>
      <point x="640" y="1241" type="line"/>
      <point x="640" y="1021" type="line"/>
      <point x="207" y="755" type="line"/>
      <point x="640" y="478" type="line"/>
      <point x="640" y="264" type="line"/>
      <point x="64" y="649" type="line"/>
    </contour>
  </outline>
</glyph>
<glyph name="equal" format="1">
  <advance width="722"/>
  <unicode hex="003D"/>
  <outline>
    <contour>
      <point x="84" y="735" type="line"/>
      <point x="668" y="735" type="line"/>
      <point x="668" y="576" type="line"/>
      <point x="84" y="576" type="line"/>
    </contour>
    <contour>
      <point x="84" y="1050" type="line"/>
      <point x="668" y="1050" type="line"/>
      <point x="668" y="892" type="line"/>
      <point x="84" y="892" type="line"/>
    </contour>
  </outline>
</glyph>
<glyph name="question" format="1">
  <advance width="854"/>
  <unicode hex="003F"/>
  <outline>
    <contour>
      <point x="258" y="494" type="line"/>
      <point x="437" y="494" type="line"/>
      <point x="437" y="718" type="line"/>
      <point x="679" y="787"/>
      <point x="735" y="953"/>
      <point x="735" y="1299" type="curve" smooth="yes"/>
      <point x="735" y="1596"/>
      <point x="717" y="1782"/>
      <point x="446" y="1782" type="curve" smooth="yes"/>
      <point x="175" y="1782"/>
      <point x="159" y="1549"/>
      <point x="159" y="1370" type="curve" smooth="yes"/>
      <point x="159" y="1160" type="line"/>
      <point x="362" y="1160" type="line"/>
      <point x="362" y="1356" type="line" smooth="yes"/>
      <point x="362" y="1542"/>
      <point x="363" y="1604"/>
      <point x="450" y="1604" type="curve" smooth="yes"/>
      <point x="530" y="1604"/>
      <point x="528" y="1536"/>
      <point x="528" y="1360" type="curve" smooth="yes"/>
      <point x="528" y="1017"/>
      <point x="524" y="892"/>
      <point x="258" y="810" type="curve"/>
    </contour>
    <contour>
      <point x="261" y="1" type="line"/>
      <point x="438" y="1" type="line"/>
      <point x="438" y="299" type="line"/>
      <point x="261" y="299" type="line"/>
    </contour>
  </outline>
</glyph>
<glyph name="at" format="1">
  <advance width="1522"/>
  <unicode hex="0040"/>
  <outline>
    <contour>
      <point x="124" y="836" type="curve" smooth="yes"/>
      <point x="124" y="1400"/>
      <point x="319" y="1779"/>
      <point x="823" y="1779" type="curve" smooth="yes"/>
      <point x="1226" y="1779"/>
      <point x="1398" y="1440"/>
      <point x="1398" y="910" type="curve" smooth="yes"/>
      <point x="1398" y="604"/>
      <point x="1324" y="337"/>
      <point x="1142" y="337" type="curve" smooth="yes"/>
      <point x="1058" y="337"/>
      <point x="983" y="436"/>
      <point x="958" y="550" type="curve"/>
      <point x="933" y="411"/>
      <point x="850" y="320"/>
      <point x="748" y="320" type="curve" smooth="yes"/>
      <point x="576" y="320"/>
      <point x="453" y="477"/>
      <point x="453" y="804" type="curve" smooth="yes"/>
      <point x="453" y="1093"/>
      <point x="543" y="1548"/>
      <point x="1074" y="1320" type="curve"/>
      <point x="1074" y="672" type="line" smooth="yes"/>
      <point x="1074" y="546"/>
      <point x="1092" y="477"/>
      <point x="1149" y="477" type="curve" smooth="yes"/>
      <point x="1223" y="477"/>
      <point x="1249" y="634"/>
      <point x="1249" y="942" type="curve" smooth="yes"/>
      <point x="1249" y="1286"/>
      <point x="1191" y="1636"/>
      <point x="809" y="1636" type="curve" smooth="yes"/>
      <point x="427" y="1636"/>
      <point x="291" y="1315"/>
      <point x="291" y="833" type="curve" smooth="yes"/>
      <point x="291" y="189"/>
      <point x="585" y="-64"/>
      <point x="1256" y="172" type="curve"/>
      <point x="1279" y="33" type="line"/>
      <point x="480" y="-236"/>
      <point x="124" y="128"/>
    </contour>
    <contour>
      <point x="930" y="718" type="curve" smooth="yes"/>
      <point x="930" y="1242" type="line"/>
      <point x="688" y="1338"/>
      <point x="597" y="1133"/>
      <point x="597" y="810" type="curve" smooth="yes"/>
      <point x="597" y="584"/>
      <point x="635" y="447"/>
      <point x="758" y="447" type="curve" smooth="yes"/>
      <point x="851" y="447"/>
      <point x="930" y="568"/>
    </contour>
  </outline>
</glyph>
<glyph name="A" format="1">
  <advance width="907"/>
  <unicode hex="0041"/>
  <outline>
    <contour>
      <point x="317" y="1760" type="line"/>
      <point x="566" y="1760" type="line"/>
      <point x="857" y="0" type="line"/>
      <point x="662" y="0" type="line"/>
      <point x="612" y="336" type="line"/>
      <point x="293" y="336" type="line"/>
      <point x="247" y="0" type="line"/>
      <point x="50" y="0" type="line"/>
    </contour>
    <contour>
      <point x="316" y="504" type="line"/>
      <point x="586" y="504" type="line"/>
      <point x="447" y="1434" type="line"/>
      <point x="444" y="1434" type="line"/>
    </contour>
  </outline>
</glyph>
<glyph name="B" format="1">
  <advance width="917"/>
  <unicode hex="0042"/>
  <outline>
    <contour>
      <point x="144" y="1760" type="line"/>
      <point x="462" y="1760" type="line" smooth="yes"/>
      <point x="731" y="1760"/>
      <point x="804" y="1647"/>
      <point x="806" y="1364" type="curve"/>
      <point x="806" y="1326" type="line" smooth="yes"/>
      <point x="806" y="1130"/>
      <point x="777" y="1008"/>
      <point x="673" y="953" type="curve"/>
      <point x="798" y="902"/>
      <point x="835" y="730"/>
      <point x="835" y="530" type="curve" smooth="yes"/>
      <point x="835" y="493" type="line"/>
      <point x="831" y="149"/>
      <point x="747" y="0"/>
      <point x="488" y="0" type="curve" smooth="yes"/>
      <point x="144" y="0" type="line"/>
    </contour>
    <contour>
      <point x="627" y="560" type="line" smooth="yes"/>
      <point x="627" y="777"/>
      <point x="603" y="866"/>
      <point x="489" y="866" type="curve" smooth="yes"/>
      <point x="351" y="866" type="line"/>
      <point x="351" y="167" type="line"/>
      <point x="478" y="167" type="line" smooth="yes"/>
      <point x="595" y="167"/>
      <point x="627" y="241"/>
      <point x="627" y="499" type="curve" smooth="yes"/>
    </contour>
    <contour>
      <point x="601" y="1361" type="line"/>
      <point x="600" y="1560"/>
      <point x="559" y="1591"/>
      <point x="453" y="1591" type="curve" smooth="yes"/>
      <point x="351" y="1591" type="line"/>
      <point x="351" y="1025" type="line"/>
      <point x="468" y="1025" type="line" smooth="yes"/>
      <point x="580" y="1025"/>
      <point x="601" y="1057"/>
      <point x="601" y="1312" type="curve" smooth="yes"/>
    </contour>
  </outline>
</glyph>
<glyph name="C" format="1">
  <advance width="918"/>
  <unicode hex="0043"/>
  <outline>
    <contour>
      <point x="124" y="1252" type="line" smooth="yes"/>
      <point x="124" y="1562"/>
      <point x="190" y="1779"/>
      <point x="477" y="1779" type="curve" smooth="yes"/>
      <point x="752" y="1779"/>
      <point x="809" y="1572"/>
      <point x="809" y="1274" type="curve" smooth="yes"/>
      <point x="809" y="1079" type="line"/>
      <point x="606" y="1079" type="line"/>
      <point x="606" y="1275" type="line" smooth="yes"/>
      <point x="606" y="1494"/>
      <point x="586" y="1602"/>
      <point x="477" y="1602" type="curve" smooth="yes"/>
      <point x="361" y="1602"/>
      <point x="331" y="1488"/>
      <point x="331" y="1276" type="curve" smooth="yes"/>
      <point x="331" y="514" type="line" smooth="yes"/>
      <point x="331" y="257"/>
      <point x="357" y="155"/>
      <point x="471" y="155" type="curve" smooth="yes"/>
      <point x="582" y="155"/>
      <point x="606" y="259"/>
      <point x="606" y="515" type="curve" smooth="yes"/>
      <point x="606" y="710" type="line"/>
      <point x="811" y="710" type="line"/>
      <point x="811" y="517" type="line" smooth="yes"/>
      <point x="811" y="165"/>
      <point x="733" y="-21"/>
      <point x="470" y="-21" type="curve" smooth="yes"/>
      <point x="213" y="-21"/>
      <point x="124" y="172"/>
      <point x="124" y="519" type="curve" smooth="yes"/>
    </contour>
  </outline>
</glyph>
<glyph name="D" format="1">
  <advance width="954"/>
  <unicode hex="0044"/>
  <outline>
    <contour>
      <point x="144" y="1760" type="line"/>
      <point x="475" y="1760" type="line" smooth="yes"/>
      <point x="751" y="1760"/>
      <point x="829" y="1579"/>
      <point x="829" y="1282" type="curve" smooth="yes"/>
      <point x="830" y="509" type="line" smooth="yes"/>
      <point x="830" y="152"/>
      <point x="732" y="0"/>
      <point x="468" y="0" type="curve" smooth="yes"/>
      <point x="144" y="0" type="line"/>
    </contour>
    <contour>
      <point x="623" y="1287" type="line" smooth="yes"/>
      <point x="623" y="1508"/>
      <point x="574" y="1596"/>
      <point x="456" y="1596" type="curve" smooth="yes"/>
      <point x="350" y="1596" type="line"/>
      <point x="350" y="167" type="line"/>
      <point x="456" y="167" type="line" smooth="yes"/>
      <point x="568" y="167"/>
      <point x="623" y="223"/>
      <point x="623" y="477" type="curve" smooth="yes"/>
    </contour>
  </outline>
</glyph>
<glyph name="E" format="1">
  <advance width="755"/>
  <unicode hex="0045"/>
  <outline>
    <contour>
      <point x="144" y="1760" type="line"/>
      <point x="670" y="1760" type="line"/>
      <point x="670" y="1588" type="line"/>
      <point x="351" y="1588" type="line"/>
      <point x="351" y="986" type="line"/>
      <point x="653" y="986" type="line"/>
      <point x="653" y="814" type="line"/>
      <point x="351" y="814" type="line"/>
      <point x="351" y="172" type="line"/>
      <point x="674" y="172" type="line"/>
      <point x="674" y="0" type="line"/>
      <point x="144" y="0" type="line"/>
    </contour>
  </outline>
</glyph>
<glyph name="F" format="1">
  <advance width="747"/>
  <unicode hex="0046"/>
  <outline>
    <contour>
      <point x="144" y="1760" type="line"/>
      <point x="674" y="1760" type="line"/>
      <point x="674" y="1587" type="line"/>
      <point x="350" y="1587" type="line"/>
      <point x="350" y="1031" type="line"/>
      <point x="654" y="1031" type="line"/>
      <point x="654" y="856" type="line"/>
      <point x="350" y="856" type="line"/>
      <point x="350" y="0" type="line"/>
      <point x="144" y="0" type="line"/>
    </contour>
  </outline>
</glyph>
<glyph name="G" format="1">
  <advance width="939"/>
  <unicode hex="0047"/>
  <outline>
    <contour>
      <point x="124" y="1262" type="line" smooth="yes"/>
      <point x="124" y="1570"/>
      <point x="199" y="1779"/>
      <point x="482" y="1779" type="curve" smooth="yes"/>
      <point x="774" y="1779"/>
      <point x="813" y="1568"/>
      <point x="813" y="1258" type="curve" smooth="yes"/>
      <point x="813" y="1122" type="line"/>
      <point x="613" y="1122" type="line"/>
      <point x="613" y="1351" type="line" smooth="yes"/>
      <point x="613" y="1522"/>
      <point x="588" y="1602"/>
      <point x="482" y="1602" type="curve" smooth="yes"/>
      <point x="368" y="1602"/>
      <point x="331" y="1517"/>
      <point x="331" y="1271" type="curve" smooth="yes"/>
      <point x="331" y="531" type="line" smooth="yes"/>
      <point x="331" y="261"/>
      <point x="356" y="155"/>
      <point x="476" y="155" type="curve" smooth="yes"/>
      <point x="590" y="155"/>
      <point x="623" y="261"/>
      <point x="623" y="535" type="curve" smooth="yes"/>
      <point x="623" y="764" type="line"/>
      <point x="480" y="764" type="line"/>
      <point x="480" y="924" type="line"/>
      <point x="813" y="924" type="line"/>
      <point x="813" y="0" type="line"/>
      <point x="704" y="0" type="line"/>
      <point x="676" y="136" type="line"/>
      <point x="638" y="37"/>
      <point x="556" y="-17"/>
      <point x="441" y="-17" type="curve" smooth="yes"/>
      <point x="237" y="-17"/>
      <point x="124" y="139"/>
      <point x="124" y="524" type="curve" smooth="yes"/>
    </contour>
  </outline>
</glyph>
<glyph name="H" format="1">
  <advance width="984"/>
  <unicode hex="0048"/>
  <outline>
    <contour>
      <point x="633" y="1760" type="line"/>
      <point x="840" y="1760" type="line"/>
      <point x="840" y="0" type="line"/>
      <point x="633" y="0" type="line"/>
      <point x="633" y="838" type="line"/>
      <point x="351" y="838" type="line"/>
      <point x="351" y="0" type="line"/>
      <point x="144" y="0" type="line"/>
      <point x="144" y="1760" type="line"/>
      <point x="351" y="1760" type="line"/>
      <point x="351" y="1007" type="line"/>
      <point x="633" y="1007" type="line"/>
    </contour>
  </outline>
</glyph>
<glyph name="I" format="1">
  <advance width="495"/>
  <unicode hex="0049"/>
  <outline>
    <contour>
      <point x="144" y="1760" type="line"/>
      <point x="351" y="1760" type="line"/>
      <point x="351" y="0" type="line"/>
      <point x="144" y="0" type="line"/>
    </contour>
  </outline>
</glyph>
<glyph name="J" format="1">
  <advance width="876"/>
  <unicode hex="004A"/>
  <outline>
    <contour>
      <point x="519" y="1760" type="line"/>
      <point x="726" y="1760" type="line"/>
      <point x="726" y="426" type="line" smooth="yes"/>
      <point x="726" y="130"/>
      <point x="623" y="-21"/>
      <point x="412" y="-21" type="curve" smooth="yes"/>
      <point x="189" y="-21"/>
      <point x="90" y="115"/>
      <point x="90" y="389" type="curve" smooth="yes"/>
      <point x="90" y="619" type="line"/>
      <point x="292" y="619" type="line"/>
      <point x="292" y="402" type="line" smooth="yes"/>
      <point x="292" y="268"/>
      <point x="296" y="155"/>
      <point x="406" y="155" type="curve" smooth="yes"/>
      <point x="516" y="155"/>
      <point x="519" y="261"/>
      <point x="519" y="418" type="curve" smooth="yes"/>
    </contour>
  </outline>
</glyph>
<glyph name="K" format="1">
  <advance width="909"/>
  <unicode hex="004B"/>
  <outline>
    <contour>
      <point x="664" y="1760" type="line"/>
      <point x="872" y="1760" type="line"/>
      <point x="544" y="891" type="line"/>
      <point x="895" y="0" type="line"/>
      <point x="679" y="0" type="line"/>
      <point x="353" y="842" type="line"/>
      <point x="353" y="0" type="line"/>
      <point x="144" y="0" type="line"/>
      <point x="144" y="1760" type="line"/>
      <point x="351" y="1760" type="line"/>
      <point x="351" y="921" type="line"/>
    </contour>
  </outline>
</glyph>
<glyph name="L" format="1">
  <advance width="695"/>
  <unicode hex="004C"/>
  <outline>
    <contour>
      <point x="144" y="1760" type="line"/>
      <point x="351" y="1760" type="line"/>
      <point x="351" y="171" type="line"/>
      <point x="676" y="171" type="line"/>
      <point x="676" y="0" type="line"/>
      <point x="144" y="0" type="line"/>
    </contour>
  </outline>
</glyph>
<glyph name="M" format="1">
  <advance width="1296"/>
  <unicode hex="004D"/>
  <outline>
    <contour>
      <point x="913" y="1760" type="line"/>
      <point x="1152" y="1760" type="line"/>
      <point x="1152" y="0" type="line"/>
      <point x="975" y="0" type="line"/>
      <point x="975" y="666" type="line"/>
      <point x="992" y="1324" type="line"/>
      <point x="727" y="0" type="line"/>
      <point x="579" y="0" type="line"/>
      <point x="303" y="1324" type="line"/>
      <point x="320" y="666" type="line"/>
      <point x="320" y="0" type="line"/>
      <point x="144" y="0" type="line"/>
      <point x="144" y="1760" type="line"/>
      <point x="382" y="1760" type="line"/>
      <point x="654" y="353" type="line"/>
    </contour>
  </outline>
</glyph>
<glyph name="N" format="1">
  <advance width="1014"/>
  <unicode hex="004E"/>
  <outline>
    <contour>
      <point x="687" y="1760" type="line"/>
      <point x="870" y="1760" type="line"/>
      <point x="870" y="0" type="line"/>
      <point x="718" y="0" type="line"/>
      <point x="323" y="1208" type="line"/>
      <point x="335" y="764" type="line"/>
      <point x="335" y="0" type="line"/>
      <point x="144" y="0" type="line"/>
      <point x="144" y="1760" type="line"/>
      <point x="300" y="1760" type="line"/>
      <point x="708" y="562" type="line"/>
      <point x="687" y="1071" type="line"/>
    </contour>
  </outline>
</glyph>
<glyph name="P" format="1">
  <advance width="894"/>
  <unicode hex="0050"/>
  <outline>
    <contour>
      <point x="144" y="1760" type="line"/>
      <point x="498" y="1760" type="line" smooth="yes"/>
      <point x="779" y="1760"/>
      <point x="827" y="1566"/>
      <point x="829" y="1256" type="curve" smooth="yes"/>
      <point x="830" y="1253"/>
      <point x="830" y="1232"/>
      <point x="830" y="1229" type="curve" smooth="yes"/>
      <point x="830" y="874"/>
      <point x="763" y="691"/>
      <point x="498" y="691" type="curve" smooth="yes"/>
      <point x="351" y="691" type="line"/>
      <point x="351" y="0" type="line"/>
      <point x="144" y="0" type="line"/>
    </contour>
    <contour>
      <point x="623" y="1263" type="line" smooth="yes"/>
      <point x="623" y="1489"/>
      <point x="600" y="1596"/>
      <point x="482" y="1596" type="curve" smooth="yes"/>
      <point x="351" y="1596" type="line"/>
      <point x="351" y="863" type="line"/>
      <point x="477" y="863" type="line" smooth="yes"/>
      <point x="598" y="863"/>
      <point x="623" y="955"/>
      <point x="623" y="1229" type="curve" smooth="yes"/>
    </contour>
  </outline>
</glyph>
<glyph name="Q" format="1">
  <advance width="944"/>
  <unicode hex="0051"/>
  <outline>
    <component base="O"/>
    <contour>
      <point x="430" y="-11" type="line"/>
      <point x="569" y="56" type="line"/>
      <point x="769" y="-176" type="line"/>
      <point x="667" y="-269" type="line"/>
    </contour>
  </outline>
</glyph>
<glyph name="R" format="1">
  <advance width="939"/>
  <unicode hex="0052"/>
  <outline>
    <contour>
      <point x="144" y="1760" type="line"/>
      <point x="513" y="1760" type="line" smooth="yes"/>
      <point x="792" y="1760"/>
      <point x="828" y="1612"/>
      <point x="828" y="1311" type="curve" smooth="yes"/>
      <point x="828" y="1094"/>
      <point x="793" y="965"/>
      <point x="667" y="928" type="curve"/>
      <point x="796" y="906"/>
      <point x="829" y="775"/>
      <point x="829" y="301" type="curve" smooth="yes"/>
      <point x="829" y="243"/>
      <point x="829" y="42"/>
      <point x="845" y="0" type="curve"/>
      <point x="639" y="0" type="line"/>
      <point x="624" y="30"/>
      <point x="623" y="247"/>
      <point x="623" y="593" type="curve" smooth="yes"/>
      <point x="623" y="793"/>
      <point x="611" y="842"/>
      <point x="474" y="843" type="curve"/>
      <point x="351" y="850" type="line"/>
      <point x="351" y="0" type="line"/>
      <point x="144" y="0" type="line"/>
    </contour>
    <contour>
      <point x="623" y="1329" type="line" smooth="yes"/>
      <point x="623" y="1553"/>
      <point x="602" y="1596"/>
      <point x="481" y="1596" type="curve" smooth="yes"/>
      <point x="351" y="1596" type="line"/>
      <point x="351" y="1002" type="line"/>
      <point x="483" y="1002" type="line" smooth="yes"/>
      <point x="597" y="1002"/>
      <point x="623" y="1046"/>
      <point x="623" y="1317" type="curve" smooth="yes"/>
    </contour>
  </outline>
</glyph>
<glyph name="T" format="1">
  <advance width="629"/>
  <unicode hex="0054"/>
  <outline>
    <contour>
      <point x="24" y="1760" type="line"/>
      <point x="605" y="1760" type="line"/>
      <point x="605" y="1588" type="line"/>
      <point x="424" y="1588" type="line"/>
      <point x="424" y="0" type="line"/>
      <point x="218" y="0" type="line"/>
      <point x="218" y="1588" type="line"/>
      <point x="24" y="1588" type="line"/>
    </contour>
  </outline>
</glyph>
<glyph name="U" format="1">
  <advance width="954"/>
  <unicode hex="0055"/>
  <outline>
    <contour>
      <point x="479" y="-21" type="curve" smooth="yes"/>
      <point x="740" y="-21"/>
      <point x="825" y="132"/>
      <point x="825" y="452" type="curve" smooth="yes"/>
      <point x="825" y="1760" type="line"/>
      <point x="619" y="1760" type="line"/>
      <point x="619" y="456" type="line" smooth="yes"/>
      <point x="619" y="266"/>
      <point x="616" y="154"/>
      <point x="479" y="154" type="curve" smooth="yes"/>
      <point x="343" y="154"/>
      <point x="337" y="267"/>
      <point x="337" y="457" type="curve" smooth="yes"/>
      <point x="337" y="1760" type="line"/>
      <point x="130" y="1760" type="line"/>
      <point x="130" y="452" type="line" smooth="yes"/>
      <point x="130" y="132"/>
      <point x="218" y="-21"/>
    </contour>
  </outline>
</glyph>
<glyph name="W" format="1">
  <advance width="1340"/>
  <unicode hex="0057"/>
  <outline>
    <contour>
      <point x="1096" y="1760" type="line"/>
      <point x="1286" y="1760" type="line"/>
      <point x="1078" y="0" type="line"/>
      <point x="873" y="0" type="line"/>
      <point x="685" y="1299" type="line"/>
      <point x="486" y="0" type="line"/>
      <point x="286" y="0" type="line"/>
      <point x="54" y="1760" type="line"/>
      <point x="245" y="1760" type="line"/>
      <point x="395" y="411" type="line"/>
      <point x="595" y="1760" type="line"/>
      <point x="764" y="1760" type="line"/>
      <point x="969" y="411" type="line"/>
    </contour>
  </outline>
</glyph>
<glyph name="X" format="1">
  <advance width="796"/>
  <unicode hex="0058"/>
  <outline>
    <contour>
      <point x="557" y="1760" type="line"/>
      <point x="743" y="1760" type="line"/>
      <point x="499" y="857" type="line"/>
      <point x="751" y="0" type="line"/>
      <point x="571" y="0" type="line"/>
      <point x="392" y="608" type="line"/>
      <point x="234" y="0" type="line"/>
      <point x="45" y="0" type="line"/>
      <point x="297" y="932" type="line"/>
      <point x="53" y="1760" type="line"/>
      <point x="234" y="1760" type="line"/>
      <point x="406" y="1174" type="line"/>
    </contour>
  </outline>
</glyph>
<glyph name="Y" format="1">
  <advance width="827"/>
  <unicode hex="0059"/>
  <outline>
    <contour>
      <point x="605" y="1760" type="line"/>
      <point x="812" y="1760" type="line"/>
      <point x="528" y="739" type="line"/>
      <point x="528" y="0" type="line"/>
      <point x="321" y="0" type="line"/>
      <point x="321" y="739" type="line"/>
      <point x="15" y="1760" type="line"/>
      <point x="220" y="1760" type="line"/>
      <point x="424" y="1045" type="line"/>
      <point x="428" y="1045" type="line"/>
    </contour>
  </outline>
</glyph>
<glyph name="Z" format="1">
  <advance width="690"/>
  <unicode hex="005A"/>
  <outline>
    <contour>
      <point x="102" y="1760" type="line"/>
      <point x="646" y="1760" type="line"/>
      <point x="646" y="1602" type="line"/>
      <point x="283" y="172" type="line"/>
      <point x="638" y="172" type="line"/>
      <point x="638" y="0" type="line"/>
      <point x="69" y="0" type="line"/>
      <point x="69" y="179" type="line"/>
      <point x="432" y="1588" type="line"/>
      <point x="102" y="1588" type="line"/>
    </contour>
  </outline>
</glyph>
<glyph name="bracketleft" format="1">
  <advance width="628"/>
  <unicode hex="005B"/>
  <outline>
    <contour>
      <point x="144" y="1760" type="line"/>
      <point x="559" y="1760" type="line"/>
      <point x="559" y="1601" type="line"/>
      <point x="350" y="1601" type="line"/>
      <point x="350" y="40" type="line"/>
      <point x="559" y="40" type="line"/>
      <point x="559" y="-120" type="line"/>
      <point x="144" y="-120" type="line"/>
    </contour>
  </outline>
</glyph>
<glyph name="backslash" format="1">
  <advance width="736"/>
  <unicode hex="005C"/>
  <outline>
    <contour>
      <point x="72" y="1760" type="line"/>
      <point x="254" y="1760" type="line"/>
      <point x="664" y="0" type="line"/>
      <point x="483" y="0" type="line"/>
    </contour>
  </outline>
</glyph>
<glyph name="bracketright" format="1">
  <advance width="628"/>
  <unicode hex="005D"/>
  <outline>
    <contour>
      <point x="484" y="1760" type="line"/>
      <point x="484" y="-120" type="line"/>
      <point x="69" y="-120" type="line"/>
      <point x="69" y="40" type="line"/>
      <point x="278" y="40" type="line"/>
      <point x="278" y="1601" type="line"/>
      <point x="69" y="1601" type="line"/>
      <point x="69" y="1760" type="line"/>
    </contour>
  </outline>
</glyph>
<glyph name="asciicircum" format="1">
  <advance width="919"/>
  <unicode hex="005E"/>
  <outline>
    <contour>
      <point x="88" y="837" type="line"/>
      <point x="290" y="837" type="line"/>
      <point x="460" y="1600" type="line"/>
      <point x="630" y="837" type="line"/>
      <point x="831" y="837" type="line"/>
      <point x="590" y="1760" type="line"/>
      <point x="329" y="1760" type="line"/>
    </contour>
  </outline>
</glyph>
<glyph name="underscore" format="1">
  <advance width="748"/>
  <unicode hex="005F"/>
  <outline>
    <contour>
      <point x="48" y="-46" type="line"/>
      <point x="699" y="-46" type="line"/>
      <point x="699" y="-198" type="line"/>
      <point x="48" y="-198" type="line"/>
    </contour>
  </outline>
</glyph>
<glyph name="grave" format="1">
  <advance width="650"/>
  <unicode hex="0060"/>
  <outline>
    <contour>
      <point x="348" y="1389" type="line"/>
      <point x="459" y="1389" type="line"/>
      <point x="365" y="1760" type="line"/>
      <point x="154" y="1760" type="line"/>
    </contour>
  </outline>
</glyph>
<glyph name="a" format="1">
  <advance width="902"/>
  <unicode hex="0061"/>
  <outline>
    <contour>
      <point x="573" y="827" type="line"/>
      <point x="367" y="735"/>
      <point x="320" y="701"/>
      <point x="320" y="530" type="curve" smooth="yes"/>
      <point x="320" y="391" type="line" smooth="yes"/>
      <point x="320" y="221"/>
      <point x="343" y="153"/>
      <point x="428" y="153" type="curve" smooth="yes"/>
      <point x="500" y="153"/>
      <point x="556" y="211"/>
      <point x="573" y="256" type="curve"/>
    </contour>
    <contour>
      <point x="132" y="1066" type="line" smooth="yes"/>
      <point x="132" y="1322"/>
      <point x="176" y="1518"/>
      <point x="462" y="1518" type="curve" smooth="yes"/>
      <point x="733" y="1518"/>
      <point x="780" y="1343"/>
      <point x="780" y="1021" type="curve" smooth="yes"/>
      <point x="780" y="0" type="line"/>
      <point x="574" y="0" type="line"/>
      <point x="574" y="130" type="line"/>
      <point x="556" y="69"/>
      <point x="487" y="-13"/>
      <point x="370" y="-13" type="curve" smooth="yes"/>
      <point x="188" y="-13"/>
      <point x="114" y="136"/>
      <point x="113" y="385" type="curve"/>
      <point x="113" y="531" type="line" smooth="yes"/>
      <point x="113" y="796"/>
      <point x="307" y="853"/>
      <point x="573" y="960" type="curve"/>
      <point x="573" y="1076" type="line" smooth="yes"/>
      <point x="573" y="1267"/>
      <point x="566" y="1347"/>
      <point x="458" y="1347" type="curve" smooth="yes"/>
      <point x="351" y="1347"/>
      <point x="336" y="1267"/>
      <point x="336" y="1075" type="curve" smooth="yes"/>
      <point x="336" y="1023" type="line"/>
      <point x="132" y="1023" type="line"/>
    </contour>
  </outline>
</glyph>
<glyph name="b" format="1">
  <advance width="940"/>
  <unicode hex="0062"/>
  <outline>
    <contour>
      <point x="610" y="1067" type="line" smooth="yes"/>
      <point x="610" y="1234"/>
      <point x="599" y="1346"/>
      <point x="494" y="1346" type="curve" smooth="yes"/>
      <point x="404" y="1346"/>
      <point x="354" y="1304"/>
      <point x="354" y="1066" type="curve" smooth="yes"/>
      <point x="354" y="458" type="line" smooth="yes"/>
      <point x="354" y="255"/>
      <point x="376" y="154"/>
      <point x="490" y="154" type="curve"/>
      <point x="590" y="155"/>
      <point x="610" y="250"/>
      <point x="610" y="463" type="curve" smooth="yes"/>
    </contour>
    <contour>
      <point x="354" y="1381" type="line"/>
      <point x="377" y="1466"/>
      <point x="464" y="1518"/>
      <point x="545" y="1518" type="curve" smooth="yes"/>
      <point x="768" y="1518"/>
      <point x="816" y="1310"/>
      <point x="816" y="1040" type="curve" smooth="yes"/>
      <point x="816" y="463" type="line" smooth="yes"/>
      <point x="816" y="192"/>
      <point x="770" y="-13"/>
      <point x="558" y="-13" type="curve" smooth="yes"/>
      <point x="476" y="-13"/>
      <point x="396" y="25"/>
      <point x="354" y="126" type="curve"/>
      <point x="354" y="0" type="line"/>
      <point x="149" y="0" type="line"/>
      <point x="149" y="1779" type="line"/>
      <point x="354" y="1779" type="line"/>
    </contour>
  </outline>
</glyph>
<glyph name="c" format="1">
  <advance width="878"/>
  <unicode hex="0063"/>
  <outline>
    <contour>
      <point x="459" y="-18" type="curve" smooth="yes"/>
      <point x="734" y="-18"/>
      <point x="775" y="184"/>
      <point x="775" y="479" type="curve" smooth="yes"/>
      <point x="775" y="576" type="line"/>
      <point x="573" y="576" type="line"/>
      <point x="573" y="431" type="line" smooth="yes"/>
      <point x="573" y="260"/>
      <point x="564" y="158"/>
      <point x="456" y="158" type="curve" smooth="yes"/>
      <point x="343" y="158"/>
      <point x="330" y="249"/>
      <point x="330" y="435" type="curve" smooth="yes"/>
      <point x="330" y="1073" type="line" smooth="yes"/>
      <point x="330" y="1239"/>
      <point x="348" y="1342"/>
      <point x="462" y="1342" type="curve" smooth="yes"/>
      <point x="570" y="1342"/>
      <point x="573" y="1250"/>
      <point x="573" y="1079" type="curve" smooth="yes"/>
      <point x="573" y="947" type="line"/>
      <point x="775" y="947" type="line"/>
      <point x="775" y="1051" type="line" smooth="yes"/>
      <point x="775" y="1332"/>
      <point x="730" y="1518"/>
      <point x="464" y="1518" type="curve" smooth="yes"/>
      <point x="176" y="1518"/>
      <point x="124" y="1308"/>
      <point x="124" y="1008" type="curve" smooth="yes"/>
      <point x="124" y="506" type="line" smooth="yes"/>
      <point x="124" y="190"/>
      <point x="169" y="-18"/>
    </contour>
  </outline>
</glyph>
<glyph name="d" format="1">
  <advance width="939"/>
  <unicode hex="0064"/>
  <outline>
    <contour>
      <point x="379" y="-13" type="curve" smooth="yes"/>
      <point x="468" y="-13"/>
      <point x="546" y="27"/>
      <point x="586" y="126" type="curve"/>
      <point x="586" y="0" type="line"/>
      <point x="792" y="0" type="line"/>
      <point x="792" y="1779" type="line"/>
      <point x="586" y="1779" type="line"/>
      <point x="586" y="1400" type="line"/>
      <point x="554" y="1466"/>
      <point x="488" y="1518"/>
      <point x="410" y="1518" type="curve" smooth="yes"/>
      <point x="185" y="1518"/>
      <point x="124" y="1314"/>
      <point x="124" y="1047" type="curve" smooth="yes"/>
      <point x="124" y="480" type="line" smooth="yes"/>
      <point x="124" y="200"/>
      <point x="157" y="-13"/>
    </contour>
    <contour>
      <point x="450" y="154" type="curve" smooth="yes"/>
      <point x="347" y="154"/>
      <point x="330" y="265"/>
      <point x="330" y="439" type="curve" smooth="yes"/>
      <point x="330" y="1045" type="line" smooth="yes"/>
      <point x="330" y="1251"/>
      <point x="355" y="1345"/>
      <point x="455" y="1346" type="curve"/>
      <point x="566" y="1346"/>
      <point x="587" y="1245"/>
      <point x="587" y="1050" type="curve" smooth="yes"/>
      <point x="587" y="448" type="line" smooth="yes"/>
      <point x="587" y="209"/>
      <point x="544" y="154"/>
    </contour>
  </outline>
</glyph>
<glyph name="e" format="1">
  <advance width="881"/>
  <unicode hex="0065"/>
  <outline>
    <contour>
      <point x="124" y="1035" type="line" smooth="yes"/>
      <point x="124" y="1317"/>
      <point x="190" y="1518"/>
      <point x="462" y="1518" type="curve" smooth="yes"/>
      <point x="737" y="1518"/>
      <point x="778" y="1315"/>
      <point x="778" y="1026" type="curve" smooth="yes"/>
      <point x="778" y="743" type="line"/>
      <point x="330" y="743" type="line"/>
      <point x="330" y="444" type="line" smooth="yes"/>
      <point x="330" y="254"/>
      <point x="340" y="153"/>
      <point x="456" y="153" type="curve" smooth="yes"/>
      <point x="569" y="153"/>
      <point x="573" y="265"/>
      <point x="573" y="441" type="curve" smooth="yes"/>
      <point x="573" y="562" type="line"/>
      <point x="774" y="562" type="line"/>
      <point x="774" y="498" type="line" smooth="yes"/>
      <point x="774" y="186"/>
      <point x="747" y="-18"/>
      <point x="454" y="-18" type="curve" smooth="yes"/>
      <point x="167" y="-18"/>
      <point x="124" y="192"/>
      <point x="124" y="505" type="curve" smooth="yes"/>
    </contour>
    <contour>
      <point x="573" y="1073" type="line" smooth="yes"/>
      <point x="573" y="1252"/>
      <point x="567" y="1349"/>
      <point x="462" y="1349" type="curve" smooth="yes"/>
      <point x="343" y="1349"/>
      <point x="329" y="1233"/>
      <point x="329" y="1066" type="curve" smooth="yes"/>
      <point x="329" y="882" type="line"/>
      <point x="573" y="882" type="line"/>
    </contour>
  </outline>
</glyph>
<glyph name="f" format="1">
  <advance width="651"/>
  <unicode hex="0066"/>
  <outline>
    <contour>
      <point x="202" y="1515" type="line" smooth="yes"/>
      <point x="202" y="1688"/>
      <point x="273" y="1786"/>
      <point x="434" y="1786" type="curve" smooth="yes"/>
      <point x="513" y="1786"/>
      <point x="577" y="1767"/>
      <point x="583" y="1765" type="curve"/>
      <point x="583" y="1622" type="line"/>
      <point x="556" y="1626"/>
      <point x="532" y="1628"/>
      <point x="512" y="1628" type="curve" smooth="yes"/>
      <point x="422" y="1628"/>
      <point x="407" y="1588"/>
      <point x="407" y="1523" type="curve" smooth="yes"/>
      <point x="407" y="1442" type="line"/>
      <point x="583" y="1442" type="line"/>
      <point x="583" y="1291" type="line"/>
      <point x="407" y="1291" type="line"/>
      <point x="407" y="0" type="line"/>
      <point x="202" y="0" type="line"/>
      <point x="202" y="1291" type="line"/>
      <point x="73" y="1291" type="line"/>
      <point x="73" y="1442" type="line"/>
      <point x="202" y="1442" type="line"/>
    </contour>
  </outline>
</glyph>
<glyph name="i" format="1">
  <advance width="494"/>
  <unicode hex="0069"/>
  <outline>
    <contour>
      <point x="144" y="1500" type="line"/>
      <point x="349" y="1500" type="line"/>
      <point x="349" y="0" type="line"/>
      <point x="144" y="0" type="line"/>
    </contour>
    <contour>
      <point x="144" y="1826" type="line"/>
      <point x="350" y="1826" type="line"/>
      <point x="350" y="1638" type="line"/>
      <point x="144" y="1638" type="line"/>
    </contour>
  </outline>
</glyph>
<glyph name="j" format="1">
  <advance width="520"/>
  <unicode hex="006A"/>
  <outline>
    <contour>
      <point x="209" y="-209" type="curve"/>
      <point x="288" y="-205"/>
      <point x="375" y="-151"/>
      <point x="375" y="20" type="curve" smooth="yes"/>
      <point x="375" y="1500" type="line"/>
      <point x="170" y="1500" type="line"/>
      <point x="170" y="10" type="line" smooth="yes"/>
      <point x="170" y="-27"/>
      <point x="159" y="-53"/>
      <point x="120" y="-57" type="curve" smooth="yes"/>
      <point x="97" y="-59"/>
      <point x="64" y="-56"/>
      <point x="62" y="-56" type="curve"/>
      <point x="62" y="-200" type="line"/>
      <point x="67" y="-203"/>
      <point x="136" y="-215"/>
    </contour>
    <contour>
      <point x="168" y="1638" type="line"/>
      <point x="374" y="1638" type="line"/>
      <point x="374" y="1826" type="line"/>
      <point x="168" y="1826" type="line"/>
    </contour>
  </outline>
</glyph>
<glyph name="k" format="1">
  <advance width="896"/>
  <unicode hex="006B"/>
  <outline>
    <contour>
      <point x="149" y="1779" type="line"/>
      <point x="354" y="1779" type="line"/>
      <point x="354" y="787" type="line"/>
      <point x="649" y="1500" type="line"/>
      <point x="856" y="1500" type="line"/>
      <point x="540" y="759" type="line"/>
      <point x="873" y="0" type="line"/>
      <point x="662" y="0" type="line"/>
      <point x="354" y="730" type="line"/>
      <point x="354" y="0" type="line"/>
      <point x="149" y="0" type="line"/>
    </contour>
  </outline>
</glyph>
<glyph name="l" format="1">
  <advance width="504"/>
  <unicode hex="006C"/>
  <outline>
    <contour>
      <point x="147" y="1779" type="line"/>
      <point x="352" y="1779" type="line"/>
      <point x="352" y="0" type="line"/>
      <point x="147" y="0" type="line"/>
    </contour>
  </outline>
</glyph>
<glyph name="n" format="1">
  <advance width="968"/>
  <unicode hex="006E"/>
  <outline>
    <contour>
      <point x="348" y="1341" type="line"/>
      <point x="374" y="1434"/>
      <point x="469" y="1519"/>
      <point x="590" y="1519" type="curve" smooth="yes"/>
      <point x="740" y="1519"/>
      <point x="829" y="1413"/>
      <point x="829" y="1196" type="curve" smooth="yes"/>
      <point x="829" y="0" type="line"/>
      <point x="624" y="0" type="line"/>
      <point x="624" y="1195" type="line" smooth="yes"/>
      <point x="624" y="1301"/>
      <point x="570" y="1347"/>
      <point x="496" y="1347" type="curve" smooth="yes"/>
      <point x="413" y="1347"/>
      <point x="348" y="1295"/>
      <point x="348" y="1175" type="curve" smooth="yes"/>
      <point x="348" y="0" type="line"/>
      <point x="143" y="0" type="line"/>
      <point x="143" y="1500" type="line"/>
      <point x="348" y="1500" type="line"/>
    </contour>
  </outline>
</glyph>
<glyph name="o" format="1">
  <advance width="914"/>
  <unicode hex="006F"/>
  <outline>
    <contour>
      <point x="459" y="153" type="curve" smooth="yes"/>
      <point x="346" y="153"/>
      <point x="330" y="268"/>
      <point x="330" y="439" type="curve" smooth="yes"/>
      <point x="330" y="1068" type="line" smooth="yes"/>
      <point x="330" y="1235"/>
      <point x="346" y="1347"/>
      <point x="459" y="1347" type="curve" smooth="yes"/>
      <point x="565" y="1347"/>
      <point x="584" y="1235"/>
      <point x="584" y="1068" type="curve" smooth="yes"/>
      <point x="584" y="439" type="line" smooth="yes"/>
      <point x="584" y="268"/>
      <point x="566" y="153"/>
    </contour>
    <contour>
      <point x="459" y="-18" type="curve" smooth="yes"/>
      <point x="744" y="-18"/>
      <point x="790" y="190"/>
      <point x="790" y="496" type="curve" smooth="yes"/>
      <point x="790" y="1027" type="line" smooth="yes"/>
      <point x="790" y="1310"/>
      <point x="732" y="1518"/>
      <point x="459" y="1518" type="curve" smooth="yes"/>
      <point x="187" y="1518"/>
      <point x="124" y="1309"/>
      <point x="124" y="1027" type="curve" smooth="yes"/>
      <point x="124" y="496" type="line" smooth="yes"/>
      <point x="124" y="185"/>
      <point x="176" y="-18"/>
    </contour>
  </outline>
</glyph>
<glyph name="p" format="1">
  <advance width="939"/>
  <unicode hex="0070"/>
  <outline>
    <contour>
      <point x="352" y="1375" type="line"/>
      <point x="392" y="1473"/>
      <point x="479" y="1513"/>
      <point x="560" y="1513" type="curve" smooth="yes"/>
      <point x="776" y="1513"/>
      <point x="815" y="1305"/>
      <point x="815" y="1030" type="curve" smooth="yes"/>
      <point x="815" y="487" type="line" smooth="yes"/>
      <point x="815" y="203"/>
      <point x="770" y="-18"/>
      <point x="527" y="-18" type="curve" smooth="yes"/>
      <point x="450" y="-18"/>
      <point x="384" y="37"/>
      <point x="352" y="100" type="curve"/>
      <point x="352" y="-274" type="line"/>
      <point x="147" y="-274" type="line"/>
      <point x="147" y="1500" type="line"/>
      <point x="352" y="1500" type="line"/>
    </contour>
    <contour>
      <point x="609" y="1066" type="line" smooth="yes"/>
      <point x="609" y="1231"/>
      <point x="598" y="1346"/>
      <point x="491" y="1346" type="curve" smooth="yes"/>
      <point x="405" y="1346"/>
      <point x="352" y="1306"/>
      <point x="352" y="1066" type="curve" smooth="yes"/>
      <point x="352" y="451" type="line" smooth="yes"/>
      <point x="352" y="252"/>
      <point x="375" y="154"/>
      <point x="487" y="154" type="curve"/>
      <point x="586" y="155"/>
      <point x="609" y="250"/>
      <point x="609" y="459" type="curve" smooth="yes"/>
    </contour>
  </outline>
</glyph>
<glyph name="r" format="1">
  <advance width="642"/>
  <unicode hex="0072"/>
  <outline>
    <contour>
      <point x="353" y="1333" type="line"/>
      <point x="387" y="1449"/>
      <point x="475" y="1518"/>
      <point x="608" y="1518" type="curve" smooth="yes"/>
      <point x="613" y="1518"/>
      <point x="611" y="1344"/>
      <point x="611" y="1344" type="curve"/>
      <point x="515" y="1344"/>
      <point x="412" y="1313"/>
      <point x="353" y="1219" type="curve"/>
      <point x="353" y="0" type="line"/>
      <point x="147" y="0" type="line"/>
      <point x="147" y="1500" type="line"/>
      <point x="353" y="1500" type="line"/>
    </contour>
  </outline>
</glyph>
<glyph name="t" format="1">
  <advance width="596"/>
  <unicode hex="0074"/>
  <outline>
    <contour>
      <point x="408" y="-9" type="curve" smooth="yes"/>
      <point x="549" y="-9" type="line"/>
      <point x="549" y="154" type="line"/>
      <point x="401" y="154"/>
      <point x="385" y="165"/>
      <point x="385" y="241" type="curve" smooth="yes"/>
      <point x="385" y="1336" type="line"/>
      <point x="547" y="1336" type="line"/>
      <point x="547" y="1488" type="line"/>
      <point x="385" y="1488" type="line"/>
      <point x="385" y="1760" type="line"/>
      <point x="180" y="1760" type="line"/>
      <point x="180" y="1488" type="line"/>
      <point x="43" y="1488" type="line"/>
      <point x="43" y="1336" type="line"/>
      <point x="180" y="1336" type="line"/>
      <point x="180" y="223" type="line" smooth="yes"/>
      <point x="180" y="54"/>
      <point x="215" y="-9"/>
    </contour>
  </outline>
</glyph>
<glyph name="u" format="1">
  <advance width="962"/>
  <unicode hex="0075"/>
  <outline>
    <contour>
      <point x="614" y="1500" type="line"/>
      <point x="820" y="1500" type="line"/>
      <point x="820" y="0" type="line"/>
      <point x="614" y="0" type="line"/>
      <point x="614" y="153" type="line"/>
      <point x="584" y="59"/>
      <point x="508" y="-20"/>
      <point x="386" y="-20" type="curve" smooth="yes"/>
      <point x="252" y="-20"/>
      <point x="135" y="73"/>
      <point x="135" y="312" type="curve" smooth="yes"/>
      <point x="135" y="1500" type="line"/>
      <point x="340" y="1500" type="line"/>
      <point x="340" y="335" type="line" smooth="yes"/>
      <point x="340" y="219"/>
      <point x="380" y="158"/>
      <point x="469" y="158" type="curve" smooth="yes"/>
      <point x="568" y="158"/>
      <point x="614" y="235"/>
      <point x="614" y="340" type="curve" smooth="yes"/>
    </contour>
  </outline>
</glyph>
<glyph name="v" format="1">
  <advance width="774"/>
  <unicode hex="0076"/>
  <outline>
    <contour>
      <point x="539" y="1500" type="line"/>
      <point x="726" y="1500" type="line"/>
      <point x="507" y="0" type="line"/>
      <point x="266" y="0" type="line"/>
      <point x="49" y="1500" type="line"/>
      <point x="235" y="1500" type="line"/>
      <point x="352" y="649" type="line"/>
      <point x="393" y="294" type="line"/>
      <point x="400" y="294" type="line"/>
      <point x="435" y="650" type="line"/>
    </contour>
  </outline>
</glyph>
<glyph name="w" format="1">
  <advance width="1166"/>
  <unicode hex="0077"/>
  <outline>
    <contour>
      <point x="230" y="0" type="line"/>
      <point x="411" y="0" type="line"/>
      <point x="591" y="1174" type="line"/>
      <point x="742" y="0" type="line"/>
      <point x="931" y="0" type="line"/>
      <point x="1112" y="1500" type="line"/>
      <point x="944" y="1500" type="line"/>
      <point x="866" y="689" type="line"/>
      <point x="842" y="378" type="line"/>
      <point x="834" y="378" type="line"/>
      <point x="793" y="688" type="line"/>
      <point x="674" y="1500" type="line"/>
      <point x="641" y="1500" type="line"/>
      <point x="549" y="1500" type="line"/>
      <point x="495" y="1500" type="line"/>
      <point x="376" y="666" type="line"/>
      <point x="338" y="378" type="line"/>
      <point x="329" y="378" type="line"/>
      <point x="306" y="665" type="line"/>
      <point x="227" y="1500" type="line"/>
      <point x="55" y="1500" type="line"/>
    </contour>
  </outline>
</glyph>
<glyph name="x" format="1">
  <advance width="751"/>
  <unicode hex="0078"/>
  <outline>
    <contour>
      <point x="47" y="1500" type="line"/>
      <point x="228" y="1500" type="line"/>
      <point x="386" y="1021" type="line"/>
      <point x="526" y="1500" type="line"/>
      <point x="712" y="1500" type="line"/>
      <point x="470" y="766" type="line"/>
      <point x="722" y="0" type="line"/>
      <point x="531" y="0" type="line"/>
      <point x="367" y="510" type="line"/>
      <point x="216" y="0" type="line"/>
      <point x="30" y="0" type="line"/>
      <point x="282" y="773" type="line"/>
    </contour>
  </outline>
</glyph>
<glyph name="y" format="1">
  <advance width="786"/>
  <unicode hex="0079"/>
  <outline>
    <contour>
      <point x="553" y="1500" type="line"/>
      <point x="751" y="1500" type="line"/>
      <point x="502" y="-29" type="line"/>
      <point x="477" y="-192"/>
      <point x="452" y="-251"/>
      <point x="305" y="-251" type="curve" smooth="yes"/>
      <point x="104" y="-251" type="line"/>
      <point x="104" y="-96" type="line"/>
      <point x="175" y="-96" type="line" smooth="yes"/>
      <point x="233" y="-96"/>
      <point x="282" y="-92"/>
      <point x="291" y="-72" type="curve"/>
      <point x="307" y="-51"/>
      <point x="300" y="0"/>
      <point x="292" y="53" type="curve" smooth="yes"/>
      <point x="47" y="1500" type="line"/>
      <point x="246" y="1500" type="line"/>
      <point x="354" y="720" type="line"/>
      <point x="398" y="314" type="line"/>
      <point x="416" y="314" type="line"/>
      <point x="455" y="720" type="line"/>
    </contour>
  </outline>
</glyph>
<glyph name="z" format="1">
  <advance width="673"/>
  <unicode hex="007A"/>
  <outline>
    <contour>
      <point x="72" y="0" type="line"/>
      <point x="597" y="0" type="line"/>
      <point x="597" y="175" type="line"/>
      <point x="283" y="175" type="line"/>
      <point x="614" y="1359" type="line"/>
      <point x="614" y="1500" type="line"/>
      <point x="97" y="1500" type="line"/>
      <point x="97" y="1323" type="line"/>
      <point x="402" y="1323" type="line"/>
      <point x="72" y="153" type="line"/>
    </contour>
  </outline>
</glyph>
<glyph name="braceleft" format="1">
  <advance width="657"/>
  <unicode hex="007B"/>
  <outline>
    <contour>
      <point x="521" y="1782" type="curve" smooth="yes"/>
      <point x="581" y="1782" type="line"/>
      <point x="581" y="1615" type="line"/>
      <point x="459" y="1615"/>
      <point x="442" y="1590"/>
      <point x="442" y="1431" type="curve" smooth="yes"/>
      <point x="442" y="1135" type="line" smooth="yes"/>
      <point x="442" y="872"/>
      <point x="420" y="824"/>
      <point x="276" y="781" type="curve"/>
      <point x="420" y="738"/>
      <point x="442" y="690"/>
      <point x="442" y="427" type="curve" smooth="yes"/>
      <point x="442" y="131" type="line" smooth="yes"/>
      <point x="442" y="-28"/>
      <point x="459" y="-53"/>
      <point x="581" y="-53" type="curve"/>
      <point x="581" y="-220" type="line"/>
      <point x="521" y="-220" type="line" smooth="yes"/>
      <point x="309" y="-220"/>
      <point x="238" y="-143"/>
      <point x="238" y="118" type="curve" smooth="yes"/>
      <point x="238" y="453" type="line" smooth="yes"/>
      <point x="238" y="645"/>
      <point x="225" y="681"/>
      <point x="99" y="681" type="curve"/>
      <point x="99" y="881" type="line"/>
      <point x="225" y="881"/>
      <point x="238" y="917"/>
      <point x="238" y="1109" type="curve" smooth="yes"/>
      <point x="238" y="1444" type="line" smooth="yes"/>
      <point x="238" y="1705"/>
      <point x="309" y="1782"/>
    </contour>
  </outline>
</glyph>
<glyph name="bar" format="1">
  <advance width="537"/>
  <unicode hex="007C"/>
  <outline>
    <contour>
      <point x="175" y="1837" type="line"/>
      <point x="372" y="1837" type="line"/>
      <point x="372" y="-124" type="line"/>
      <point x="175" y="-124" type="line"/>
    </contour>
  </outline>
</glyph>
<glyph name="asciitilde" format="1">
  <advance width="1117"/>
  <unicode hex="007E"/>
  <outline>
    <contour>
      <point x="735" y="1046" type="curve"/>
      <point x="769" y="1050"/>
      <point x="806" y="1085"/>
      <point x="829" y="1161" type="curve"/>
      <point x="993" y="1119" type="line"/>
      <point x="959" y="983"/>
      <point x="873" y="832"/>
      <point x="764" y="832" type="curve" smooth="yes"/>
      <point x="650" y="832"/>
      <point x="461" y="924"/>
      <point x="355" y="924" type="curve" smooth="yes"/>
      <point x="315" y="924"/>
      <point x="287" y="893"/>
      <point x="260" y="831" type="curve"/>
      <point x="111" y="909" type="line"/>
      <point x="162" y="1055"/>
      <point x="239" y="1134"/>
      <point x="341" y="1134" type="curve" smooth="yes"/>
      <point x="445" y="1134"/>
      <point x="671" y="1046"/>
    </contour>
  </outline>
</glyph>
<glyph name="cent" format="1">
  <advance width="878"/>
  <unicode hex="00A2"/>
  <outline>
    <component base="c"/>
    <contour>
      <point x="402" y="1767" type="line"/>
      <point x="515" y="1767" type="line"/>
      <point x="515" y="1510" type="line"/>
      <point x="402" y="1512" type="line"/>
    </contour>
    <contour>
      <point x="402" y="5" type="line"/>
      <point x="515" y="5" type="line"/>
      <point x="515" y="-250" type="line"/>
      <point x="402" y="-250" type="line"/>
    </contour>
  </outline>
</glyph>
<glyph name="sterling" format="1">
  <advance width="854"/>
  <unicode hex="00A3"/>
  <outline>
    <contour>
      <point x="118" y="0" type="line"/>
      <point x="787" y="0" type="line"/>
      <point x="787" y="164" type="line"/>
      <point x="350" y="164" type="line"/>
      <point x="488" y="232"/>
      <point x="548" y="384"/>
      <point x="503" y="614" type="curve" smooth="yes"/>
      <point x="465" y="809" type="line"/>
      <point x="732" y="809" type="line"/>
      <point x="732" y="949" type="line"/>
      <point x="428" y="949" type="line"/>
      <point x="381" y="1165" type="line" smooth="yes"/>
      <point x="355" y="1283"/>
      <point x="347" y="1338"/>
      <point x="347" y="1406" type="curve" smooth="yes"/>
      <point x="347" y="1593"/>
      <point x="398" y="1618"/>
      <point x="482" y="1618" type="curve" smooth="yes"/>
      <point x="597" y="1618"/>
      <point x="612" y="1526"/>
      <point x="612" y="1393" type="curve" smooth="yes"/>
      <point x="612" y="1246" type="line"/>
      <point x="786" y="1246" type="line"/>
      <point x="786" y="1388" type="line" smooth="yes"/>
      <point x="786" y="1659"/>
      <point x="698" y="1782"/>
      <point x="479" y="1782" type="curve" smooth="yes"/>
      <point x="263" y="1782"/>
      <point x="152" y="1672"/>
      <point x="152" y="1403" type="curve" smooth="yes"/>
      <point x="152" y="1325"/>
      <point x="165" y="1258"/>
      <point x="188" y="1146" type="curve" smooth="yes"/>
      <point x="229" y="949" type="line"/>
      <point x="81" y="949" type="line"/>
      <point x="81" y="809" type="line"/>
      <point x="263" y="809" type="line"/>
      <point x="305" y="620" type="line" smooth="yes"/>
      <point x="366" y="347"/>
      <point x="232" y="205"/>
      <point x="118" y="143" type="curve"/>
    </contour>
  </outline>
</glyph>
<glyph name="currency" format="1">
  <advance width="1159"/>
  <unicode hex="00A4"/>
  <outline>
    <contour>
      <point x="274" y="509" type="line"/>
      <point x="363" y="598" type="line"/>
      <point x="424" y="563"/>
      <point x="496" y="545"/>
      <point x="579" y="545" type="curve" smooth="yes"/>
      <point x="661" y="545"/>
      <point x="733" y="562"/>
      <point x="795" y="597" type="curve"/>
      <point x="884" y="509" type="line"/>
      <point x="1034" y="658" type="line"/>
      <point x="944" y="748" type="line"/>
      <point x="980" y="813"/>
      <point x="998" y="885"/>
      <point x="998" y="964" type="curve" smooth="yes"/>
      <point x="998" y="1043"/>
      <point x="980" y="1114"/>
      <point x="944" y="1179" type="curve"/>
      <point x="1034" y="1269" type="line"/>
      <point x="884" y="1418" type="line"/>
      <point x="797" y="1331" type="line"/>
      <point x="732" y="1367"/>
      <point x="659" y="1385"/>
      <point x="579" y="1385" type="curve" smooth="yes"/>
      <point x="498" y="1385"/>
      <point x="426" y="1367"/>
      <point x="361" y="1330" type="curve"/>
      <point x="274" y="1418" type="line"/>
      <point x="125" y="1268" type="line"/>
      <point x="215" y="1178" type="line"/>
      <point x="180" y="1113"/>
      <point x="163" y="1042"/>
      <point x="163" y="964" type="curve" smooth="yes"/>
      <point x="163" y="887"/>
      <point x="181" y="815"/>
      <point x="216" y="750" type="curve"/>
      <point x="125" y="659" type="line"/>
    </contour>
    <contour>
      <point x="579" y="703" type="curve" smooth="yes"/>
      <point x="431" y="703"/>
      <point x="336" y="819"/>
      <point x="336" y="964" type="curve" smooth="yes"/>
      <point x="336" y="1108"/>
      <point x="432" y="1224"/>
      <point x="579" y="1224" type="curve" smooth="yes"/>
      <point x="730" y="1224"/>
      <point x="823" y="1114"/>
      <point x="823" y="966" type="curve" smooth="yes"/>
      <point x="823" y="822"/>
      <point x="727" y="703"/>
    </contour>
  </outline>
</glyph>
<glyph name="yen" format="1">
  <advance width="827"/>
  <unicode hex="00A5"/>
  <outline>
    <component base="Y"/>
    <contour>
      <point x="85" y="798" type="line"/>
      <point x="763" y="798" type="line"/>
      <point x="763" y="682" type="line"/>
      <point x="506" y="682" type="line"/>
      <point x="506" y="507" type="line"/>
      <point x="763" y="507" type="line"/>
      <point x="763" y="391" type="line"/>
      <point x="85" y="391" type="line"/>
      <point x="85" y="507" type="line"/>
      <point x="377" y="507" type="line"/>
      <point x="377" y="682" type="line"/>
      <point x="85" y="682" type="line"/>
    </contour>
  </outline>
</glyph>
<glyph name="brokenbar" format="1">
  <advance width="485"/>
  <unicode hex="00A6"/>
  <outline>
    <contour>
      <point x="144" y="1760" type="line"/>
      <point x="341" y="1760" type="line"/>
      <point x="341" y="930" type="line"/>
      <point x="144" y="930" type="line"/>
    </contour>
    <contour>
      <point x="144" y="690" type="line"/>
      <point x="341" y="690" type="line"/>
      <point x="341" y="-149" type="line"/>
      <point x="144" y="-149" type="line"/>
    </contour>
  </outline>
</glyph>
<glyph name="dieresis" format="1">
  <advance width="976"/>
  <unicode hex="00A8"/>
  <outline>
    <contour>
      <point x="615" y="596" type="line"/>
      <point x="845" y="596" type="line"/>
      <point x="845" y="418" type="line"/>
      <point x="615" y="418" type="line"/>
    </contour>
    <contour>
      <point x="131" y="596" type="line"/>
      <point x="361" y="596" type="line"/>
      <point x="361" y="418" type="line"/>
      <point x="131" y="418" type="line"/>
    </contour>
  </outline>
</glyph>
<glyph name="copyright" format="1">
  <advance width="1466"/>
  <unicode hex="00A9"/>
  <outline>
    <contour>
      <point x="732" y="424" type="curve" smooth="yes"/>
      <point x="894" y="424"/>
      <point x="944" y="497"/>
      <point x="944" y="623" type="curve" smooth="yes"/>
      <point x="944" y="765" type="line"/>
      <point x="815" y="765" type="line"/>
      <point x="815" y="616" type="line" smooth="yes"/>
      <point x="815" y="546"/>
      <point x="780" y="536"/>
      <point x="738" y="536" type="curve" smooth="yes"/>
      <point x="695" y="536"/>
      <point x="652" y="547"/>
      <point x="652" y="616" type="curve" smooth="yes"/>
      <point x="652" y="1097" type="line" smooth="yes"/>
      <point x="652" y="1181"/>
      <point x="695" y="1189"/>
      <point x="738" y="1189" type="curve" smooth="yes"/>
      <point x="780" y="1189"/>
      <point x="815" y="1182"/>
      <point x="815" y="1084" type="curve" smooth="yes"/>
      <point x="815" y="977" type="line"/>
      <point x="940" y="977" type="line"/>
      <point x="940" y="1095" type="line" smooth="yes"/>
      <point x="940" y="1259"/>
      <point x="870" y="1305"/>
      <point x="736" y="1305" type="curve" smooth="yes"/>
      <point x="571" y="1305"/>
      <point x="527" y="1217"/>
      <point x="527" y="1089" type="curve" smooth="yes"/>
      <point x="527" y="628" type="line" smooth="yes"/>
      <point x="527" y="507"/>
      <point x="593" y="424"/>
    </contour>
    <contour>
      <point x="741" y="334" type="curve" smooth="yes"/>
      <point x="397" y="334"/>
      <point x="225" y="597"/>
      <point x="225" y="861" type="curve" smooth="yes"/>
      <point x="225" y="1125"/>
      <point x="397" y="1390"/>
      <point x="741" y="1390" type="curve" smooth="yes"/>
      <point x="1085" y="1390"/>
      <point x="1257" y="1127"/>
      <point x="1257" y="863" type="curve" smooth="yes"/>
      <point x="1257" y="599"/>
      <point x="1085" y="334"/>
    </contour>
    <contour>
      <point x="741" y="205" type="curve" smooth="yes"/>
      <point x="1114" y="205"/>
      <point x="1398" y="489"/>
      <point x="1398" y="862" type="curve" smooth="yes"/>
      <point x="1398" y="1235"/>
      <point x="1114" y="1519"/>
      <point x="741" y="1519" type="curve" smooth="yes"/>
      <point x="368" y="1519"/>
      <point x="84" y="1235"/>
      <point x="84" y="862" type="curve" smooth="yes"/>
      <point x="84" y="489"/>
      <point x="368" y="205"/>
    </contour>
  </outline>
</glyph>
<glyph name="ordfeminine" format="1">
  <advance width="927"/>
  <unicode hex="00AA"/>
  <outline>
    <contour>
      <point x="216" y="1420" type="line" smooth="yes"/>
      <point x="216" y="1624"/>
      <point x="251" y="1782"/>
      <point x="480" y="1782" type="curve" smooth="yes"/>
      <point x="697" y="1782"/>
      <point x="734" y="1641"/>
      <point x="734" y="1384" type="curve" smooth="yes"/>
      <point x="734" y="567" type="line"/>
      <point x="570" y="567" type="line"/>
      <point x="570" y="667" type="line"/>
      <point x="558" y="625"/>
      <point x="500" y="556"/>
      <point x="406" y="556" type="curve" smooth="yes"/>
      <point x="261" y="556"/>
      <point x="202" y="675"/>
      <point x="201" y="874" type="curve"/>
      <point x="201" y="992" type="line" smooth="yes"/>
      <point x="201" y="1204"/>
      <point x="354" y="1250"/>
      <point x="569" y="1337" type="curve"/>
      <point x="569" y="1405" type="line" smooth="yes"/>
      <point x="569" y="1560"/>
      <point x="570" y="1645"/>
      <point x="477" y="1645" type="curve" smooth="yes"/>
      <point x="392" y="1645"/>
      <point x="379" y="1583"/>
      <point x="379" y="1429" type="curve" smooth="yes"/>
      <point x="379" y="1385" type="line"/>
      <point x="216" y="1385" type="line"/>
    </contour>
    <contour>
      <point x="569" y="772" type="curve"/>
      <point x="569" y="1225" type="line"/>
      <point x="403" y="1151"/>
      <point x="366" y="1126"/>
      <point x="366" y="988" type="curve" smooth="yes"/>
      <point x="366" y="880" type="line" smooth="yes"/>
      <point x="366" y="743"/>
      <point x="385" y="689"/>
      <point x="453" y="689" type="curve" smooth="yes"/>
      <point x="511" y="689"/>
      <point x="555" y="736"/>
    </contour>
  </outline>
</glyph>
<glyph name="guillemotleft" format="1">
  <advance width="1304"/>
  <unicode hex="00AB"/>
  <outline>
    <contour>
      <point x="560" y="372" type="line"/>
      <point x="560" y="586" type="line"/>
      <point x="248" y="749" type="line"/>
      <point x="560" y="903" type="line"/>
      <point x="560" y="1110" type="line"/>
      <point x="82" y="839" type="line"/>
      <point x="82" y="657" type="line"/>
    </contour>
    <contour>
      <point x="1098" y="372" type="line"/>
      <point x="1098" y="586" type="line"/>
      <point x="786" y="749" type="line"/>
      <point x="1098" y="903" type="line"/>
      <point x="1098" y="1110" type="line"/>
      <point x="620" y="839" type="line"/>
      <point x="620" y="657" type="line"/>
    </contour>
  </outline>
</glyph>
<glyph name="logicalnot" format="1">
  <advance width="947"/>
  <unicode hex="00AC"/>
  <outline>
    <contour>
      <point x="97" y="979" type="line"/>
      <point x="793" y="979" type="line"/>
      <point x="793" y="439" type="line"/>
      <point x="602" y="439" type="line"/>
      <point x="602" y="796" type="line"/>
      <point x="97" y="796" type="line"/>
    </contour>
  </outline>
</glyph>
<glyph name="uni00AD" format="1">
  <advance width="696"/>
  <unicode hex="00AD"/>
  <outline>
    <contour>
      <point x="90" y="741" type="line"/>
      <point x="606" y="741" type="line"/>
      <point x="606" y="573" type="line"/>
      <point x="90" y="573" type="line"/>
    </contour>
  </outline>
</glyph>
<glyph name="macron" format="1">
  <advance width="696"/>
  <unicode hex="00AF"/>
  <outline>
    <contour>
      <point x="90" y="544" type="line"/>
      <point x="591" y="544" type="line"/>
      <point x="591" y="412" type="line"/>
      <point x="90" y="412" type="line"/>
    </contour>
  </outline>
</glyph>
<glyph name="degree" format="1">
  <advance width="915"/>
  <unicode hex="00B0"/>
  <outline>
    <contour>
      <point x="104" y="1448" type="curve" smooth="yes"/>
      <point x="104" y="1893"/>
      <point x="811" y="1893"/>
      <point x="811" y="1448" type="curve" smooth="yes"/>
      <point x="811" y="1004"/>
      <point x="104" y="1001"/>
    </contour>
    <contour>
      <point x="657" y="1448" type="curve" smooth="yes"/>
      <point x="657" y="1731"/>
      <point x="259" y="1733"/>
      <point x="259" y="1448" type="curve" smooth="yes"/>
      <point x="259" y="1165"/>
      <point x="657" y="1163"/>
    </contour>
  </outline>
</glyph>
<glyph name="plusminus" format="1">
  <advance width="854"/>
  <unicode hex="00B1"/>
  <outline>
    <contour>
      <point x="353" y="1152" type="line"/>
      <point x="501" y="1152" type="line"/>
      <point x="501" y="906" type="line"/>
      <point x="729" y="906" type="line"/>
      <point x="729" y="766" type="line"/>
      <point x="501" y="766" type="line"/>
      <point x="501" y="516" type="line"/>
      <point x="353" y="516" type="line"/>
      <point x="353" y="766" type="line"/>
      <point x="129" y="766" type="line"/>
      <point x="129" y="906" type="line"/>
      <point x="353" y="906" type="line"/>
    </contour>
    <contour>
      <point x="165" y="337" type="line"/>
      <point x="681" y="337" type="line"/>
      <point x="681" y="188" type="line"/>
      <point x="165" y="188" type="line"/>
    </contour>
  </outline>
</glyph>
<glyph name="uni00B2" format="1">
  <advance width="846"/>
  <unicode hex="00B2"/>
  <outline>
    <contour>
      <point x="222" y="1340" type="line" smooth="yes"/>
      <point x="222" y="1618"/>
      <point x="243" y="1779"/>
      <point x="468" y="1779" type="curve" smooth="yes"/>
      <point x="638" y="1779"/>
      <point x="680" y="1602"/>
      <point x="680" y="1427" type="curve" smooth="yes"/>
      <point x="680" y="1087"/>
      <point x="433" y="915"/>
      <point x="381" y="603" type="curve"/>
      <point x="664" y="603" type="line"/>
      <point x="664" y="490" type="line"/>
      <point x="226" y="490" type="line"/>
      <point x="226" y="557" type="line" smooth="yes"/>
      <point x="226" y="681"/>
      <point x="452" y="1142"/>
      <point x="482" y="1179" type="curve"/>
      <point x="514" y="1238"/>
      <point x="536" y="1350"/>
      <point x="536" y="1438" type="curve" smooth="yes"/>
      <point x="536" y="1617"/>
      <point x="502" y="1652"/>
      <point x="456" y="1652" type="curve" smooth="yes"/>
      <point x="408" y="1652"/>
      <point x="370" y="1618"/>
      <point x="370" y="1428" type="curve" smooth="yes"/>
      <point x="370" y="1262" type="line"/>
      <point x="222" y="1262" type="line"/>
    </contour>
  </outline>
</glyph>
<glyph name="uni00B3" format="1">
  <advance width="868"/>
  <unicode hex="00B3"/>
  <outline>
    <contour>
      <point x="201" y="1467" type="line" smooth="yes"/>
      <point x="201" y="1674"/>
      <point x="265" y="1779"/>
      <point x="438" y="1779" type="curve" smooth="yes"/>
      <point x="607" y="1779"/>
      <point x="680" y="1671"/>
      <point x="680" y="1467" type="curve" smooth="yes"/>
      <point x="680" y="1336"/>
      <point x="647" y="1238"/>
      <point x="560" y="1206" type="curve"/>
      <point x="651" y="1166"/>
      <point x="682" y="1047"/>
      <point x="682" y="910" type="curve" smooth="yes"/>
      <point x="682" y="684"/>
      <point x="609" y="571"/>
      <point x="433" y="571" type="curve" smooth="yes"/>
      <point x="260" y="571"/>
      <point x="197" y="680"/>
      <point x="197" y="902" type="curve" smooth="yes"/>
      <point x="197" y="956" type="line"/>
      <point x="339" y="956" type="line"/>
      <point x="339" y="902" type="line" smooth="yes"/>
      <point x="339" y="742"/>
      <point x="352" y="689"/>
      <point x="435" y="689" type="curve" smooth="yes"/>
      <point x="518" y="689"/>
      <point x="536" y="752"/>
      <point x="536" y="911" type="curve" smooth="yes"/>
      <point x="536" y="1086"/>
      <point x="502" y="1148"/>
      <point x="402" y="1148" type="curve" smooth="yes"/>
      <point x="373" y="1148" type="line"/>
      <point x="373" y="1261" type="line"/>
      <point x="401" y="1261" type="line"/>
      <point x="497" y="1262"/>
      <point x="535" y="1294"/>
      <point x="535" y="1467" type="curve" smooth="yes"/>
      <point x="535" y="1627"/>
      <point x="492" y="1658"/>
      <point x="435" y="1658" type="curve" smooth="yes"/>
      <point x="374" y="1658"/>
      <point x="344" y="1617"/>
      <point x="344" y="1464" type="curve" smooth="yes"/>
      <point x="344" y="1439" type="line"/>
      <point x="201" y="1439" type="line"/>
    </contour>
  </outline>
</glyph>
<glyph name="acute" format="1">
  <advance width="567"/>
  <unicode hex="00B4"/>
  <outline>
    <contour>
      <point x="277" y="1341" type="line"/>
      <point x="166" y="1341" type="line"/>
      <point x="252" y="1760" type="line"/>
      <point x="451" y="1760" type="line"/>
    </contour>
  </outline>
</glyph>
<glyph name="paragraph" format="1">
  <advance width="1064"/>
  <unicode hex="00B6"/>
  <outline>
    <contour>
      <point x="617" y="1760" type="curve" smooth="yes"/>
      <point x="920" y="1760" type="line"/>
      <point x="920" y="0" type="line"/>
      <point x="742" y="0" type="line"/>
      <point x="742" y="1575" type="line"/>
      <point x="599" y="1575" type="line"/>
      <point x="599" y="0" type="line"/>
      <point x="421" y="0" type="line"/>
      <point x="421" y="1135" type="line"/>
      <point x="207" y="1159"/>
      <point x="98" y="1263"/>
      <point x="98" y="1456" type="curve" smooth="yes"/>
      <point x="98" y="1698"/>
      <point x="240" y="1760"/>
    </contour>
  </outline>
</glyph>
<glyph name="periodcentered" format="1">
  <advance width="480"/>
  <unicode hex="00B7"/>
  <outline>
    <contour>
      <point x="148" y="977" type="line"/>
      <point x="348" y="977" type="line"/>
      <point x="348" y="769" type="line"/>
      <point x="148" y="769" type="line"/>
    </contour>
  </outline>
</glyph>
<glyph name="cedilla" format="1">
  <advance width="345"/>
  <unicode hex="00B8"/>
  <outline>
    <contour>
      <point x="153" y="0" type="line"/>
      <point x="222" y="0" type="line"/>
      <point x="234" y="-144" type="line"/>
      <point x="373" y="-202"/>
      <point x="437" y="-294"/>
      <point x="437" y="-385" type="curve" smooth="yes"/>
      <point x="437" y="-507"/>
      <point x="328" y="-617"/>
      <point x="159" y="-617" type="curve" smooth="yes"/>
      <point x="121" y="-617"/>
      <point x="82" y="-611"/>
      <point x="42" y="-599" type="curve"/>
      <point x="42" y="-501" type="line"/>
      <point x="231" y="-501"/>
      <point x="273" y="-434"/>
      <point x="273" y="-359" type="curve" smooth="yes"/>
      <point x="273" y="-269"/>
      <point x="195" y="-214"/>
      <point x="113" y="-196" type="curve"/>
    </contour>
  </outline>
</glyph>
<glyph name="uni00B9" format="1">
  <advance width="627"/>
  <unicode hex="00B9"/>
  <outline>
    <contour>
      <point x="302" y="1760" type="curve"/>
      <point x="409" y="1760" type="line"/>
      <point x="409" y="487" type="line"/>
      <point x="253" y="487" type="line"/>
      <point x="253" y="1557" type="line"/>
      <point x="214" y="1519"/>
      <point x="145" y="1500"/>
      <point x="90" y="1500" type="curve"/>
      <point x="90" y="1600" type="line"/>
      <point x="169" y="1609"/>
      <point x="269" y="1667"/>
    </contour>
  </outline>
</glyph>
<glyph name="ordmasculine" format="1">
  <advance width="829"/>
  <unicode hex="00BA"/>
  <outline>
    <contour>
      <point x="146" y="1388" type="line" smooth="yes"/>
      <point x="146" y="1613"/>
      <point x="195" y="1782"/>
      <point x="417" y="1782" type="curve" smooth="yes"/>
      <point x="641" y="1782"/>
      <point x="683" y="1615"/>
      <point x="683" y="1388" type="curve" smooth="yes"/>
      <point x="683" y="964" type="line" smooth="yes"/>
      <point x="683" y="720"/>
      <point x="645" y="552"/>
      <point x="417" y="552" type="curve" smooth="yes"/>
      <point x="190" y="552"/>
      <point x="146" y="715"/>
      <point x="146" y="964" type="curve" smooth="yes"/>
    </contour>
    <contour>
      <point x="517" y="1421" type="line" smooth="yes"/>
      <point x="517" y="1555"/>
      <point x="502" y="1645"/>
      <point x="417" y="1645" type="curve" smooth="yes"/>
      <point x="326" y="1645"/>
      <point x="312" y="1555"/>
      <point x="312" y="1421" type="curve" smooth="yes"/>
      <point x="312" y="918" type="line" smooth="yes"/>
      <point x="312" y="780"/>
      <point x="328" y="689"/>
      <point x="417" y="689" type="curve"/>
      <point x="499" y="688"/>
      <point x="517" y="779"/>
      <point x="517" y="918" type="curve" smooth="yes"/>
    </contour>
  </outline>
</glyph>
<glyph name="onequarter" format="1">
  <advance width="1535"/>
  <unicode hex="00BC"/>
  <outline>
    <contour>
      <point x="946" y="1760" type="line"/>
      <point x="1079" y="1760" type="line"/>
      <point x="600" y="0" type="line"/>
      <point x="467" y="0" type="line"/>
    </contour>
    <contour>
      <point x="297" y="1760" type="curve"/>
      <point x="397" y="1760" type="line"/>
      <point x="397" y="514" type="line"/>
      <point x="250" y="514" type="line"/>
      <point x="250" y="1565" type="line"/>
      <point x="214" y="1527"/>
      <point x="148" y="1508"/>
      <point x="95" y="1508" type="curve"/>
      <point x="95" y="1604" type="line"/>
      <point x="170" y="1613"/>
      <point x="263" y="1669"/>
    </contour>
    <contour>
      <point x="1160" y="1147" type="line"/>
      <point x="1316" y="1147" type="line"/>
      <point x="1316" y="325" type="line"/>
      <point x="1406" y="325" type="line"/>
      <point x="1406" y="219" type="line"/>
      <point x="1316" y="219" type="line"/>
      <point x="1316" y="0" type="line"/>
      <point x="1190" y="0" type="line"/>
      <point x="1190" y="219" type="line"/>
      <point x="909" y="219" type="line"/>
      <point x="909" y="310" type="line"/>
    </contour>
    <contour>
      <point x="1190" y="325" type="line"/>
      <point x="1190" y="928" type="line"/>
      <point x="1028" y="325" type="line"/>
    </contour>
  </outline>
</glyph>
<glyph name="onehalf" format="1">
  <advance width="1620"/>
  <unicode hex="00BD"/>
  <outline>
    <contour>
      <point x="1096" y="0" type="line"/>
      <point x="1522" y="0" type="line"/>
      <point x="1522" y="108" type="line"/>
      <point x="1245" y="108" type="line"/>
      <point x="1257.5" y="184.75"/>
      <point x="1282.0625" y="252.875"/>
      <point x="1311.875" y="317.109375" type="curve" smooth="yes"/>
      <point x="1341.6875" y="381.34375"/>
      <point x="1376.75" y="441.6875"/>
      <point x="1410.25" y="502.875" type="curve" smooth="yes"/>
      <point x="1477.25" y="625.25"/>
      <point x="1538.0" y="751.0"/>
      <point x="1538" y="918" type="curve" smooth="yes"/>
      <point x="1538" y="1088"/>
      <point x="1499" y="1263"/>
      <point x="1332" y="1263" type="curve" smooth="yes"/>
      <point x="1111" y="1263"/>
      <point x="1092" y="1104"/>
      <point x="1092" y="833" type="curve" smooth="yes"/>
      <point x="1092" y="756" type="line"/>
      <point x="1235" y="756" type="line"/>
      <point x="1235" y="919" type="line" smooth="yes"/>
      <point x="1235" y="1108"/>
      <point x="1273" y="1141"/>
      <point x="1319" y="1141" type="curve" smooth="yes"/>
      <point x="1365" y="1141"/>
      <point x="1399" y="1107"/>
      <point x="1399" y="929" type="curve" smooth="yes"/>
      <point x="1399" y="842"/>
      <point x="1378" y="733"/>
      <point x="1346" y="674" type="curve"/>
      <point x="1332.5" y="658.0"/>
      <point x="1270.0" y="535.25"/>
      <point x="1210.875" y="401.75" type="curve" smooth="yes"/>
      <point x="1151.75" y="268.25"/>
      <point x="1096.0" y="124.0"/>
      <point x="1096" y="65" type="curve" smooth="yes"/>
    </contour>
    <contour>
      <point x="250" y="514" type="line"/>
      <point x="397" y="514" type="line"/>
      <point x="397" y="1760" type="line"/>
      <point x="297" y="1760" type="line"/>
      <point x="263" y="1669"/>
      <point x="170" y="1613"/>
      <point x="95" y="1604" type="curve"/>
      <point x="95" y="1508" type="line"/>
      <point x="148" y="1508"/>
      <point x="214" y="1527"/>
      <point x="250" y="1565" type="curve"/>
    </contour>
    <contour>
      <point x="477" y="0" type="line"/>
      <point x="610" y="0" type="line"/>
      <point x="1089" y="1760" type="line"/>
      <point x="956" y="1760" type="line"/>
    </contour>
  </outline>
</glyph>
<glyph name="AE" format="1">
  <advance width="1206"/>
  <unicode hex="00C6"/>
  <outline>
    <contour>
      <point x="419" y="1760" type="line"/>
      <point x="1105" y="1760" type="line"/>
      <point x="1105" y="1588" type="line"/>
      <point x="803" y="1588" type="line"/>
      <point x="803" y="986" type="line"/>
      <point x="1088" y="986" type="line"/>
      <point x="1088" y="812" type="line"/>
      <point x="803" y="812" type="line"/>
      <point x="803" y="172" type="line"/>
      <point x="1109" y="172" type="line"/>
      <point x="1109" y="0" type="line"/>
      <point x="596" y="0" type="line"/>
      <point x="596" y="336" type="line"/>
      <point x="329" y="336" type="line"/>
      <point x="264" y="0" type="line"/>
      <point x="66" y="0" type="line"/>
    </contour>
    <contour>
      <point x="596" y="497" type="line"/>
      <point x="596" y="1590" type="line"/>
      <point x="570" y="1589" type="line"/>
      <point x="359" y="497" type="line"/>
    </contour>
  </outline>
</glyph>
<glyph name="multiply" format="1">
  <advance width="710"/>
  <unicode hex="00D7"/>
  <outline>
    <contour>
      <point x="534" y="936" type="line"/>
      <point x="634" y="832" type="line"/>
      <point x="458" y="655" type="line"/>
      <point x="634" y="478" type="line"/>
      <point x="534" y="374" type="line"/>
      <point x="355" y="552" type="line"/>
      <point x="176" y="374" type="line"/>
      <point x="76" y="478" type="line"/>
      <point x="252" y="655" type="line"/>
      <point x="76" y="832" type="line"/>
      <point x="176" y="936" type="line"/>
      <point x="355" y="758" type="line"/>
    </contour>
  </outline>
</glyph>
<glyph name="Oslash" format="1">
  <advance width="900"/>
  <unicode hex="00D8"/>
  <outline>
    <component base="O"/>
    <contour>
      <point x="75" y="-166" type="line"/>
      <point x="803" y="1906" type="line"/>
      <point x="910" y="1870" type="line"/>
      <point x="174" y="-206" type="line"/>
    </contour>
  </outline>
</glyph>
<glyph name="Thorn" format="1">
  <advance width="927"/>
  <unicode hex="00DE"/>
  <outline>
    <contour>
      <point x="162" y="1760" type="line"/>
      <point x="368" y="1760" type="line"/>
      <point x="368" y="1500" type="line"/>
      <point x="515" y="1500" type="line" smooth="yes"/>
      <point x="798" y="1500"/>
      <point x="846" y="1300"/>
      <point x="847" y="987" type="curve"/>
      <point x="847" y="963" type="line" smooth="yes"/>
      <point x="847" y="609"/>
      <point x="780" y="422"/>
      <point x="515" y="422" type="curve" smooth="yes"/>
      <point x="368" y="422" type="line"/>
      <point x="368" y="0" type="line"/>
      <point x="162" y="0" type="line"/>
    </contour>
    <contour>
      <point x="641" y="994" type="line" smooth="yes"/>
      <point x="641" y="1222"/>
      <point x="619" y="1335"/>
      <point x="499" y="1335" type="curve" smooth="yes"/>
      <point x="368" y="1335" type="line"/>
      <point x="368" y="594" type="line"/>
      <point x="495" y="594" type="line" smooth="yes"/>
      <point x="616" y="594"/>
      <point x="641" y="689"/>
      <point x="641" y="964" type="curve" smooth="yes"/>
    </contour>
  </outline>
</glyph>
<glyph name="germandbls" format="1">
  <advance width="981"/>
  <unicode hex="00DF"/>
  <outline>
    <contour>
      <point x="144" y="1417" type="line" smooth="yes"/>
      <point x="144" y="1660"/>
      <point x="191" y="1779"/>
      <point x="474" y="1779" type="curve" smooth="yes"/>
      <point x="740" y="1779"/>
      <point x="831" y="1694"/>
      <point x="831" y="1417" type="curve" smooth="yes"/>
      <point x="831" y="1220" type="line" smooth="yes"/>
      <point x="831" y="1056"/>
      <point x="792" y="986"/>
      <point x="668" y="945" type="curve"/>
      <point x="840" y="904"/>
      <point x="891" y="801"/>
      <point x="891" y="553" type="curve" smooth="yes"/>
      <point x="891" y="476" type="line" smooth="yes"/>
      <point x="891" y="177"/>
      <point x="854" y="0"/>
      <point x="554" y="0" type="curve" smooth="yes"/>
      <point x="450" y="0" type="line"/>
      <point x="450" y="168" type="line"/>
      <point x="653" y="168"/>
      <point x="689" y="199"/>
      <point x="689" y="395" type="curve" smooth="yes"/>
      <point x="689" y="656" type="line" smooth="yes"/>
      <point x="689" y="806"/>
      <point x="636" y="851"/>
      <point x="459" y="851" type="curve"/>
      <point x="459" y="1019" type="line"/>
      <point x="589" y="1019"/>
      <point x="631" y="1058"/>
      <point x="631" y="1170" type="curve" smooth="yes"/>
      <point x="631" y="1470" type="line" smooth="yes"/>
      <point x="631" y="1590"/>
      <point x="596" y="1627"/>
      <point x="484" y="1627" type="curve" smooth="yes"/>
      <point x="387" y="1627"/>
      <point x="348" y="1590"/>
      <point x="348" y="1470" type="curve" smooth="yes"/>
      <point x="348" y="0" type="line"/>
      <point x="144" y="0" type="line"/>
    </contour>
  </outline>
</glyph>
<glyph name="ae" format="1">
  <advance width="1356"/>
  <unicode hex="00E6"/>
  <outline>
    <contour>
      <point x="925" y="-18" type="curve" smooth="yes"/>
      <point x="1214" y="-18"/>
      <point x="1238" y="193"/>
      <point x="1238" y="502" type="curve" smooth="yes"/>
      <point x="1238" y="562" type="line"/>
      <point x="1036" y="562" type="line"/>
      <point x="1036" y="451" type="line" smooth="yes"/>
      <point x="1036" y="276"/>
      <point x="1032" y="153"/>
      <point x="919" y="153" type="curve" smooth="yes"/>
      <point x="807" y="153"/>
      <point x="792" y="252"/>
      <point x="792" y="457" type="curve" smooth="yes"/>
      <point x="792" y="740" type="line"/>
      <point x="1240" y="740" type="line"/>
      <point x="1241" y="750"/>
      <point x="1241" y="1026"/>
      <point x="1241" y="1026" type="curve"/>
      <point x="1241" y="1315"/>
      <point x="1200" y="1518"/>
      <point x="925" y="1518" type="curve" smooth="yes"/>
      <point x="814" y="1518"/>
      <point x="739" y="1483"/>
      <point x="691" y="1418" type="curve"/>
      <point x="654" y="1484"/>
      <point x="589" y="1518"/>
      <point x="475" y="1518" type="curve" smooth="yes"/>
      <point x="189" y="1518"/>
      <point x="145" y="1322"/>
      <point x="145" y="1066" type="curve" smooth="yes"/>
      <point x="145" y="1023" type="line"/>
      <point x="349" y="1023" type="line"/>
      <point x="349" y="1077" type="line" smooth="yes"/>
      <point x="349" y="1270"/>
      <point x="365" y="1347"/>
      <point x="470" y="1347" type="curve" smooth="yes"/>
      <point x="579" y="1347"/>
      <point x="585" y="1252"/>
      <point x="586" y="1063" type="curve"/>
      <point x="586" y="962" type="line"/>
      <point x="319" y="854"/>
      <point x="128" y="797"/>
      <point x="126" y="537" type="curve"/>
      <point x="126" y="390" type="line" smooth="yes"/>
      <point x="126" y="135"/>
      <point x="217" y="-13"/>
      <point x="404" y="-13" type="curve" smooth="yes"/>
      <point x="512" y="-13"/>
      <point x="624" y="56"/>
      <point x="670" y="115" type="curve"/>
      <point x="713" y="32"/>
      <point x="794" y="-18"/>
    </contour>
    <contour>
      <point x="441" y="153" type="curve" smooth="yes"/>
      <point x="356" y="153"/>
      <point x="333" y="221"/>
      <point x="333" y="391" type="curve" smooth="yes"/>
      <point x="333" y="527" type="line" smooth="yes"/>
      <point x="333" y="698"/>
      <point x="378" y="729"/>
      <point x="585" y="822" type="curve"/>
      <point x="585" y="257" type="line"/>
      <point x="569" y="212"/>
      <point x="513" y="153"/>
    </contour>
    <contour>
      <point x="792" y="889" type="line"/>
      <point x="792" y="1060" type="line" smooth="yes"/>
      <point x="792" y="1233"/>
      <point x="805" y="1349"/>
      <point x="924" y="1349" type="curve" smooth="yes"/>
      <point x="1030" y="1349"/>
      <point x="1036" y="1252"/>
      <point x="1036" y="1073" type="curve" smooth="yes"/>
      <point x="1036" y="889" type="line"/>
    </contour>
  </outline>
</glyph>
<glyph name="eth" format="1">
  <advance width="968"/>
  <unicode hex="00F0"/>
  <outline>
    <contour>
      <point x="461" y="-20" type="curve" smooth="yes"/>
      <point x="760" y="-20"/>
      <point x="822" y="194"/>
      <point x="822" y="516" type="curve" smooth="yes"/>
      <point x="822" y="909" type="line" smooth="yes"/>
      <point x="822" y="972"/>
      <point x="795" y="1420"/>
      <point x="753" y="1507" type="curve"/>
      <point x="942" y="1617" type="line"/>
      <point x="883" y="1735" type="line"/>
      <point x="683" y="1620" type="line"/>
      <point x="600" y="1724"/>
      <point x="480" y="1774"/>
      <point x="349" y="1780" type="curve"/>
      <point x="282" y="1635" type="line"/>
      <point x="354" y="1626"/>
      <point x="442" y="1595"/>
      <point x="507" y="1520" type="curve"/>
      <point x="299" y="1399" type="line"/>
      <point x="358" y="1281" type="line"/>
      <point x="575" y="1407" type="line"/>
      <point x="598" y="1351"/>
      <point x="612" y="1041"/>
      <point x="612" y="1025" type="curve"/>
      <point x="572" y="1073"/>
      <point x="506" y="1099"/>
      <point x="438" y="1101" type="curve" smooth="yes"/>
      <point x="187" y="1109"/>
      <point x="104" y="947"/>
      <point x="104" y="571" type="curve" smooth="yes"/>
      <point x="104" y="462" type="line" smooth="yes"/>
      <point x="104" y="148"/>
      <point x="183" y="-20"/>
    </contour>
    <contour>
      <point x="460" y="158" type="curve" smooth="yes"/>
      <point x="344" y="158"/>
      <point x="311" y="215"/>
      <point x="311" y="440" type="curve" smooth="yes"/>
      <point x="311" y="578" type="line" smooth="yes"/>
      <point x="311" y="836"/>
      <point x="338" y="927"/>
      <point x="454" y="927" type="curve" smooth="yes"/>
      <point x="539" y="927"/>
      <point x="602" y="882"/>
      <point x="616" y="854" type="curve"/>
      <point x="616" y="481" type="line" smooth="yes"/>
      <point x="616" y="255"/>
      <point x="585" y="158"/>
    </contour>
  </outline>
</glyph>
<glyph name="divide" format="1">
  <advance width="804"/>
  <unicode hex="00F7"/>
  <outline>
    <contour>
      <point x="303" y="197" type="line"/>
      <point x="501" y="197" type="line"/>
      <point x="501" y="495" type="line"/>
      <point x="303" y="495" type="line"/>
    </contour>
    <contour>
      <point x="94" y="671" type="line"/>
      <point x="710" y="671" type="line"/>
      <point x="710" y="838" type="line"/>
      <point x="94" y="838" type="line"/>
    </contour>
    <contour>
      <point x="303" y="1016" type="line"/>
      <point x="501" y="1016" type="line"/>
      <point x="501" y="1314" type="line"/>
      <point x="303" y="1314" type="line"/>
    </contour>
  </outline>
</glyph>
<glyph name="Hbar" format="1">
  <advance width="984"/>
  <unicode hex="0126"/>
  <outline>
    <component base="H"/>
    <contour>
      <point x="55" y="1504" type="line"/>
      <point x="951" y="1504" type="line"/>
      <point x="951" y="1398" type="line"/>
      <point x="55" y="1398" type="line"/>
    </contour>
  </outline>
</glyph>
<glyph name="hbar" format="1">
  <advance width="969"/>
  <unicode hex="0127"/>
  <outline>
    <component base="h"/>
    <contour>
      <point x="0" y="1692" type="line"/>
      <point x="561" y="1692" type="line"/>
      <point x="561" y="1576" type="line"/>
      <point x="0" y="1576" type="line"/>
    </contour>
  </outline>
</glyph>
<glyph name="kgreenlandic" format="1">
  <advance width="866"/>
  <unicode hex="0138"/>
  <outline>
    <contour>
      <point x="147" y="1500" type="line"/>
      <point x="352" y="1500" type="line"/>
      <point x="352" y="787" type="line"/>
      <point x="647" y="1500" type="line"/>
      <point x="854" y="1500" type="line"/>
      <point x="538" y="759" type="line"/>
      <point x="871" y="0" type="line"/>
      <point x="660" y="0" type="line"/>
      <point x="352" y="730" type="line"/>
      <point x="352" y="0" type="line"/>
      <point x="147" y="0" type="line"/>
    </contour>
  </outline>
</glyph>
<glyph name="Lslash" format="1">
  <advance width="748"/>
  <unicode hex="0141"/>
  <outline>
    <component base="L"/>
    <contour>
      <point x="-1" y="916" type="line"/>
      <point x="554" y="1139" type="line"/>
      <point x="554" y="987" type="line"/>
      <point x="-1" y="764" type="line"/>
    </contour>
  </outline>
</glyph>
<glyph name="lslash" format="1">
  <advance width="691"/>
  <unicode hex="0142"/>
  <outline>
    <component base="l" xOffset="68"/>
    <contour>
      <point x="75" y="921" type="line"/>
      <point x="601" y="1153" type="line"/>
      <point x="601" y="986" type="line"/>
      <point x="75" y="754" type="line"/>
    </contour>
  </outline>
</glyph>
<glyph name="OE" format="1">
  <advance width="1214"/>
  <unicode hex="0152"/>
  <outline>
    <contour>
      <point x="478" y="1760" type="curve" smooth="yes"/>
      <point x="1112" y="1760" type="line"/>
      <point x="1112" y="1588" type="line"/>
      <point x="815" y="1588" type="line"/>
      <point x="815" y="986" type="line"/>
      <point x="1095" y="986" type="line"/>
      <point x="1095" y="812" type="line"/>
      <point x="815" y="812" type="line"/>
      <point x="815" y="172" type="line"/>
      <point x="1117" y="172" type="line"/>
      <point x="1117" y="0" type="line"/>
      <point x="473" y="0" type="line" smooth="yes"/>
      <point x="209" y="0"/>
      <point x="124" y="154"/>
      <point x="124" y="507" type="curve" smooth="yes"/>
      <point x="124" y="1282" type="line" smooth="yes"/>
      <point x="124" y="1585"/>
      <point x="196" y="1760"/>
    </contour>
    <contour>
      <point x="609" y="178" type="line"/>
      <point x="609" y="1581" type="line"/>
      <point x="478" y="1581" type="line" smooth="yes"/>
      <point x="362" y="1581"/>
      <point x="331" y="1504"/>
      <point x="331" y="1293" type="curve" smooth="yes"/>
      <point x="331" y="505" type="line" smooth="yes"/>
      <point x="331" y="245"/>
      <point x="353" y="179"/>
      <point x="473" y="178" type="curve"/>
    </contour>
  </outline>
</glyph>
<glyph name="oe" format="1">
  <advance width="1358"/>
  <unicode hex="0153"/>
  <outline>
    <contour>
      <point x="693" y="1403" type="curve"/>
      <point x="744" y="1472"/>
      <point x="819" y="1518"/>
      <point x="927" y="1518" type="curve" smooth="yes"/>
      <point x="1201" y="1518"/>
      <point x="1243" y="1315"/>
      <point x="1243" y="1026" type="curve"/>
      <point x="1243" y="1026"/>
      <point x="1243" y="750"/>
      <point x="1242" y="740" type="curve"/>
      <point x="794" y="740" type="line"/>
      <point x="794" y="444" type="line" smooth="yes"/>
      <point x="794" y="254"/>
      <point x="804" y="153"/>
      <point x="921" y="153" type="curve" smooth="yes"/>
      <point x="1033" y="153"/>
      <point x="1038" y="276"/>
      <point x="1038" y="451" type="curve" smooth="yes"/>
      <point x="1038" y="463"/>
      <point x="1038" y="561"/>
      <point x="1037" y="562" type="curve"/>
      <point x="1240" y="562" type="line"/>
      <point x="1240" y="502" type="line" smooth="yes"/>
      <point x="1240" y="190"/>
      <point x="1211" y="-18"/>
      <point x="919" y="-18" type="curve" smooth="yes"/>
      <point x="810" y="-18"/>
      <point x="738" y="27"/>
      <point x="689" y="96" type="curve"/>
      <point x="639" y="28"/>
      <point x="566" y="-18"/>
      <point x="462" y="-18" type="curve" smooth="yes"/>
      <point x="179" y="-18"/>
      <point x="124" y="186"/>
      <point x="124" y="497" type="curve" smooth="yes"/>
      <point x="124" y="1027" type="line" smooth="yes"/>
      <point x="124" y="1309"/>
      <point x="190" y="1518"/>
      <point x="462" y="1518" type="curve" smooth="yes"/>
      <point x="568" y="1518"/>
      <point x="642" y="1472"/>
    </contour>
    <contour>
      <point x="588" y="1068" type="line" smooth="yes"/>
      <point x="588" y="1235"/>
      <point x="568" y="1347"/>
      <point x="462" y="1347" type="curve" smooth="yes"/>
      <point x="349" y="1347"/>
      <point x="331" y="1235"/>
      <point x="331" y="1068" type="curve" smooth="yes"/>
      <point x="331" y="439" type="line" smooth="yes"/>
      <point x="331" y="268"/>
      <point x="349" y="153"/>
      <point x="462" y="153" type="curve" smooth="yes"/>
      <point x="569" y="153"/>
      <point x="588" y="268"/>
      <point x="588" y="439" type="curve" smooth="yes"/>
    </contour>
    <contour>
      <point x="1038" y="1073" type="line" smooth="yes"/>
      <point x="1038" y="1252"/>
      <point x="1033" y="1349"/>
      <point x="927" y="1349" type="curve" smooth="yes"/>
      <point x="808" y="1349"/>
      <point x="795" y="1228"/>
      <point x="795" y="1061" type="curve" smooth="yes"/>
      <point x="795" y="889" type="line"/>
      <point x="1038" y="889" type="line"/>
    </contour>
  </outline>
</glyph>
<glyph name="uni0237" format="1">
  <advance width="540"/>
  <unicode hex="0237"/>
  <outline>
    <contour>
      <point x="188" y="1500" type="line"/>
      <point x="394" y="1500" type="line"/>
      <point x="394" y="70" type="line" smooth="yes"/>
      <point x="394" y="-101"/>
      <point x="307" y="-155"/>
      <point x="227" y="-159" type="curve"/>
      <point x="155" y="-166"/>
      <point x="85" y="-153"/>
      <point x="80" y="-150" type="curve"/>
      <point x="80" y="-6" type="line"/>
      <point x="82" y="-6"/>
      <point x="115" y="-9"/>
      <point x="139" y="-7" type="curve" smooth="yes"/>
      <point x="177" y="-3"/>
      <point x="188" y="23"/>
      <point x="188" y="60" type="curve" smooth="yes"/>
    </contour>
  </outline>
</glyph>
<glyph name="caron" format="1">
  <advance width="970"/>
  <unicode hex="02C7"/>
  <outline>
    <contour>
      <point x="571" y="1886" type="line"/>
      <point x="754" y="1886" type="line"/>
      <point x="601" y="1592" type="line"/>
      <point x="369" y="1592" type="line"/>
      <point x="215" y="1886" type="line"/>
      <point x="399" y="1886" type="line"/>
      <point x="485" y="1681" type="line"/>
    </contour>
  </outline>
</glyph>
<glyph name="breve" format="1">
  <advance width="1016"/>
  <unicode hex="02D8"/>
  <outline>
    <contour>
      <point x="635" y="1856" type="curve"/>
      <point x="741" y="1856" type="line"/>
      <point x="741" y="1843" type="line" smooth="yes"/>
      <point x="741" y="1700"/>
      <point x="665" y="1617"/>
      <point x="505" y="1617" type="curve" smooth="yes"/>
      <point x="351" y="1617"/>
      <point x="271" y="1698"/>
      <point x="271" y="1841" type="curve" smooth="yes"/>
      <point x="271" y="1856" type="line"/>
      <point x="377" y="1856" type="line"/>
      <point x="377" y="1756"/>
      <point x="440" y="1735"/>
      <point x="507" y="1735" type="curve" smooth="yes"/>
      <point x="572" y="1735"/>
      <point x="635" y="1753"/>
    </contour>
  </outline>
</glyph>
<glyph name="dotaccent" format="1">
  <advance width="572"/>
  <unicode hex="02D9"/>
  <outline>
    <contour>
      <point x="184" y="583" type="line"/>
      <point x="397" y="583" type="line"/>
      <point x="397" y="405" type="line"/>
      <point x="184" y="405" type="line"/>
    </contour>
  </outline>
</glyph>
<glyph name="ogonek" format="1">
  <advance width="711"/>
  <unicode hex="02DB"/>
  <outline>
    <contour>
      <point x="339" y="-626" type="curve" smooth="yes"/>
      <point x="407" y="-626"/>
      <point x="485" y="-604"/>
      <point x="508" y="-591" type="curve"/>
      <point x="508" y="-476" type="line"/>
      <point x="502" y="-478"/>
      <point x="445" y="-496"/>
      <point x="376" y="-496" type="curve" smooth="yes"/>
      <point x="278" y="-496"/>
      <point x="227" y="-447"/>
      <point x="227" y="-365" type="curve" smooth="yes"/>
      <point x="227" y="-259"/>
      <point x="308" y="-117"/>
      <point x="427" y="0" type="curve"/>
      <point x="342" y="0" type="line"/>
      <point x="165" y="-100"/>
      <point x="69" y="-262"/>
      <point x="69" y="-396" type="curve" smooth="yes"/>
      <point x="69" y="-529"/>
      <point x="157" y="-626"/>
    </contour>
  </outline>
</glyph>
<glyph name="hungarumlaut" format="1">
  <advance width="1170"/>
  <unicode hex="02DD"/>
  <outline>
    <contour>
      <point x="568" y="505" type="line"/>
      <point x="753" y="1020" type="line"/>
      <point x="941" y="925" type="line"/>
      <point x="657" y="459" type="line"/>
    </contour>
    <contour>
      <point x="276" y="505" type="line"/>
      <point x="404" y="1020" type="line"/>
      <point x="589" y="933" type="line"/>
      <point x="366" y="467" type="line"/>
    </contour>
  </outline>
</glyph>
<glyph name="uni0302" format="1">
  <advance width="697"/>
  <unicode hex="0302"/>
  <outline>
    <contour>
      <point x="239" y="1760" type="line"/>
      <point x="471" y="1760" type="line"/>
      <point x="624" y="1468" type="line"/>
      <point x="441" y="1468" type="line"/>
      <point x="355" y="1673" type="line"/>
      <point x="269" y="1468" type="line"/>
      <point x="85" y="1468" type="line"/>
    </contour>
  </outline>
</glyph>
<glyph name="uni0307" format="1">
  <advance width="572"/>
  <unicode hex="0307"/>
  <outline>
    <contour>
      <point x="187" y="727" type="line"/>
      <point x="395" y="727" type="line"/>
      <point x="395" y="458" type="line"/>
      <point x="187" y="458" type="line"/>
    </contour>
  </outline>
</glyph>
<glyph name="dblgravecmb" format="1">
  <advance width="825"/>
  <unicode hex="030F"/>
  <outline>
    <contour>
      <point x="58" y="1702" type="line"/>
      <point x="210" y="1779" type="line"/>
      <point x="407" y="1293" type="line"/>
      <point x="313" y="1243" type="line"/>
    </contour>
    <contour>
      <point x="381" y="1700" type="line"/>
      <point x="539" y="1779" type="line"/>
      <point x="699" y="1293" type="line"/>
      <point x="605" y="1243" type="line"/>
    </contour>
  </outline>
</glyph>
<glyph name="uni0311" format="1">
  <advance width="1016"/>
  <unicode hex="0311"/>
  <outline>
    <contour>
      <point x="270" y="1632" type="line"/>
      <point x="268" y="1775"/>
      <point x="342" y="1860"/>
      <point x="502" y="1863" type="curve" smooth="yes"/>
      <point x="656" y="1866"/>
      <point x="738" y="1786"/>
      <point x="740" y="1643" type="curve"/>
      <point x="740" y="1628" type="line"/>
      <point x="634" y="1626" type="line"/>
      <point x="633" y="1727"/>
      <point x="569" y="1746"/>
      <point x="502" y="1745" type="curve" smooth="yes"/>
      <point x="438" y="1744"/>
      <point x="375" y="1724"/>
      <point x="376" y="1621" type="curve"/>
      <point x="270" y="1619" type="line"/>
    </contour>
  </outline>
</glyph>
<glyph name="commaaccentcomb" format="1">
  <advance width="528"/>
  <unicode hex="0326"/>
  <outline>
    <contour>
      <point x="204" y="-387" type="line"/>
      <point x="294" y="-387" type="line"/>
      <point x="379" y="-90" type="line"/>
      <point x="379" y="128" type="line"/>
      <point x="145" y="128" type="line"/>
      <point x="145" y="-99" type="line"/>
      <point x="253" y="-99" type="line"/>
    </contour>
  </outline>
</glyph>
<glyph name="Delta" format="1">
  <advance width="939"/>
  <unicode hex="0394"/>
  <outline>
    <contour>
      <point x="286" y="168" type="line"/>
      <point x="460" y="1434" type="line"/>
      <point x="463" y="1434" type="line"/>
      <point x="653" y="168" type="line"/>
    </contour>
    <contour>
      <point x="66" y="0" type="line"/>
      <point x="873" y="0" type="line"/>
      <point x="582" y="1760" type="line"/>
      <point x="333" y="1760" type="line"/>
    </contour>
  </outline>
</glyph>
<glyph name="mu" format="1">
  <advance width="971"/>
  <unicode hex="03BC"/>
  <outline>
    <contour>
      <point x="616" y="1500" type="line"/>
      <point x="822" y="1500" type="line"/>
      <point x="822" y="0" type="line"/>
      <point x="616" y="0" type="line"/>
      <point x="616" y="153" type="line"/>
      <point x="586" y="59"/>
      <point x="510" y="-20"/>
      <point x="388" y="-20" type="curve" smooth="yes"/>
      <point x="371" y="-20"/>
      <point x="354" y="-19"/>
      <point x="338" y="-15" type="curve"/>
      <point x="338" y="-186" type="line"/>
      <point x="137" y="-186" type="line"/>
      <point x="137" y="1500" type="line"/>
      <point x="342" y="1500" type="line"/>
      <point x="342" y="335" type="line" smooth="yes"/>
      <point x="342" y="219"/>
      <point x="382" y="158"/>
      <point x="471" y="158" type="curve" smooth="yes"/>
      <point x="570" y="158"/>
      <point x="616" y="235"/>
      <point x="616" y="340" type="curve" smooth="yes"/>
    </contour>
  </outline>
</glyph>
<glyph name="quoteleft" format="1">
  <advance width="591"/>
  <unicode hex="2018"/>
  <outline>
    <contour>
      <point x="268" y="1760" type="line"/>
      <point x="397" y="1760" type="line"/>
      <point x="305" y="1337" type="line"/>
      <point x="453" y="1337" type="line"/>
      <point x="453" y="1097" type="line"/>
      <point x="144" y="1097" type="line"/>
      <point x="144" y="1328" type="line"/>
    </contour>
  </outline>
</glyph>
<glyph name="quoteright" format="1">
  <advance width="591"/>
  <unicode hex="2019"/>
  <outline>
    <contour>
      <point x="160" y="1760" type="line"/>
      <point x="469" y="1760" type="line"/>
      <point x="469" y="1529" type="line"/>
      <point x="344" y="1097" type="line"/>
      <point x="215" y="1097" type="line"/>
      <point x="307" y="1520" type="line"/>
      <point x="160" y="1520" type="line"/>
    </contour>
  </outline>
</glyph>
<glyph name="quotesinglbase" format="1">
  <advance width="484"/>
  <unicode hex="201A"/>
  <outline>
    <contour>
      <point x="97" y="232" type="line"/>
      <point x="399" y="232" type="line"/>
      <point x="399" y="9" type="line"/>
      <point x="285" y="-382" type="line"/>
      <point x="152" y="-382" type="line"/>
      <point x="238" y="0" type="line"/>
      <point x="97" y="0" type="line"/>
    </contour>
  </outline>
</glyph>
<glyph name="quotedblleft" format="1">
  <advance width="1030"/>
  <unicode hex="201C"/>
  <outline>
    <contour>
      <point x="159" y="1126" type="line"/>
      <point x="461" y="1126" type="line"/>
      <point x="461" y="1359" type="line"/>
      <point x="320" y="1359" type="line"/>
      <point x="406" y="1760" type="line"/>
      <point x="273" y="1760" type="line"/>
      <point x="159" y="1350" type="line"/>
    </contour>
    <contour>
      <point x="615" y="1126" type="line"/>
      <point x="917" y="1126" type="line"/>
      <point x="917" y="1359" type="line"/>
      <point x="776" y="1359" type="line"/>
      <point x="862" y="1760" type="line"/>
      <point x="730" y="1760" type="line"/>
      <point x="615" y="1350" type="line"/>
    </contour>
  </outline>
</glyph>
<glyph name="quotedblright" format="1">
  <advance width="1077"/>
  <unicode hex="201D"/>
  <outline>
    <contour>
      <point x="630" y="1760" type="line"/>
      <point x="932" y="1760" type="line"/>
      <point x="932" y="1536" type="line"/>
      <point x="817" y="1126" type="line"/>
      <point x="684" y="1126" type="line"/>
      <point x="770" y="1527" type="line"/>
      <point x="630" y="1527" type="line"/>
    </contour>
    <contour>
      <point x="173" y="1760" type="line"/>
      <point x="475" y="1760" type="line"/>
      <point x="475" y="1536" type="line"/>
      <point x="361" y="1126" type="line"/>
      <point x="228" y="1126" type="line"/>
      <point x="314" y="1527" type="line"/>
      <point x="173" y="1527" type="line"/>
    </contour>
  </outline>
</glyph>
<glyph name="quotedblbase" format="1">
  <advance width="1016"/>
  <unicode hex="201E"/>
  <outline>
    <contour>
      <point x="622" y="233" type="line"/>
      <point x="924" y="233" type="line"/>
      <point x="924" y="9" type="line"/>
      <point x="810" y="-401" type="line"/>
      <point x="677" y="-401" type="line"/>
      <point x="763" y="0" type="line"/>
      <point x="622" y="0" type="line"/>
    </contour>
    <contour>
      <point x="166" y="233" type="line"/>
      <point x="468" y="233" type="line"/>
      <point x="468" y="9" type="line"/>
      <point x="353" y="-401" type="line"/>
      <point x="221" y="-401" type="line"/>
      <point x="307" y="0" type="line"/>
      <point x="166" y="0" type="line"/>
    </contour>
  </outline>
</glyph>
<glyph name="dagger" format="1">
  <advance width="909"/>
  <unicode hex="2020"/>
  <outline>
    <contour>
      <point x="352" y="1592" type="line"/>
      <point x="560" y="1592" type="line"/>
      <point x="560" y="1182" type="line"/>
      <point x="818" y="1182" type="line"/>
      <point x="818" y="1017" type="line"/>
      <point x="560" y="1017" type="line"/>
      <point x="560" y="0" type="line"/>
      <point x="352" y="0" type="line"/>
      <point x="352" y="1017" type="line"/>
      <point x="91" y="1017" type="line"/>
      <point x="91" y="1182" type="line"/>
      <point x="352" y="1182" type="line"/>
    </contour>
  </outline>
</glyph>
<glyph name="daggerdbl" format="1">
  <advance width="927"/>
  <unicode hex="2021"/>
  <outline>
    <contour>
      <point x="352" y="1592" type="line"/>
      <point x="560" y="1592" type="line"/>
      <point x="560" y="1182" type="line"/>
      <point x="818" y="1182" type="line"/>
      <point x="818" y="1017" type="line"/>
      <point x="560" y="1017" type="line"/>
      <point x="560" y="668" type="line"/>
      <point x="818" y="668" type="line"/>
      <point x="818" y="503" type="line"/>
      <point x="560" y="503" type="line"/>
      <point x="560" y="0" type="line"/>
      <point x="352" y="0" type="line"/>
      <point x="352" y="503" type="line"/>
      <point x="91" y="503" type="line"/>
      <point x="91" y="668" type="line"/>
      <point x="352" y="668" type="line"/>
      <point x="352" y="1017" type="line"/>
      <point x="91" y="1017" type="line"/>
      <point x="91" y="1182" type="line"/>
      <point x="352" y="1182" type="line"/>
    </contour>
  </outline>
</glyph>
<glyph name="bullet" format="1">
  <advance width="861"/>
  <unicode hex="2022"/>
  <outline>
    <contour>
      <point x="197" y="741" type="curve" smooth="yes"/>
      <point x="197" y="906"/>
      <point x="278" y="999"/>
      <point x="430" y="999" type="curve" smooth="yes"/>
      <point x="583" y="999"/>
      <point x="664" y="906"/>
      <point x="664" y="741" type="curve" smooth="yes"/>
      <point x="664" y="576"/>
      <point x="583" y="483"/>
      <point x="430" y="483" type="curve" smooth="yes"/>
      <point x="278" y="483"/>
      <point x="197" y="576"/>
    </contour>
  </outline>
</glyph>
<glyph name="perthousand" format="1">
  <advance width="3042"/>
  <unicode hex="2030"/>
  <outline>
    <contour>
      <point x="1360" y="1760" type="line"/>
      <point x="1531" y="1760" type="line"/>
      <point x="831" y="0" type="line"/>
      <point x="652" y="0" type="line"/>
    </contour>
    <contour>
      <point x="591" y="1433" type="line" smooth="yes"/>
      <point x="591" y="1575"/>
      <point x="564" y="1621"/>
      <point x="466" y="1621" type="curve" smooth="yes"/>
      <point x="368" y="1621"/>
      <point x="341" y="1574"/>
      <point x="341" y="1433" type="curve" smooth="yes"/>
      <point x="341" y="937" type="line" smooth="yes"/>
      <point x="341" y="792"/>
      <point x="369" y="742"/>
      <point x="466" y="742" type="curve" smooth="yes"/>
      <point x="563" y="742"/>
      <point x="591" y="792"/>
      <point x="591" y="937" type="curve" smooth="yes"/>
    </contour>
    <contour>
      <point x="156" y="1364" type="line" smooth="yes"/>
      <point x="156" y="1675"/>
      <point x="233" y="1782"/>
      <point x="466" y="1782" type="curve" smooth="yes"/>
      <point x="700" y="1782"/>
      <point x="777" y="1675"/>
      <point x="777" y="1364" type="curve" smooth="yes"/>
      <point x="777" y="1009" type="line" smooth="yes"/>
      <point x="777" y="692"/>
      <point x="697" y="581"/>
      <point x="466" y="581" type="curve" smooth="yes"/>
      <point x="236" y="581"/>
      <point x="156" y="692"/>
      <point x="156" y="1009" type="curve" smooth="yes"/>
    </contour>
    <contour>
      <point x="1854" y="832" type="line" smooth="yes"/>
      <point x="1854" y="974"/>
      <point x="1827" y="1020"/>
      <point x="1729" y="1020" type="curve" smooth="yes"/>
      <point x="1631" y="1020"/>
      <point x="1604" y="973"/>
      <point x="1604" y="832" type="curve" smooth="yes"/>
      <point x="1604" y="336" type="line" smooth="yes"/>
      <point x="1604" y="191"/>
      <point x="1632" y="141"/>
      <point x="1729" y="141" type="curve" smooth="yes"/>
      <point x="1826" y="141"/>
      <point x="1854" y="191"/>
      <point x="1854" y="336" type="curve" smooth="yes"/>
    </contour>
    <contour>
      <point x="1419" y="763" type="line" smooth="yes"/>
      <point x="1419" y="1074"/>
      <point x="1496" y="1181"/>
      <point x="1729" y="1181" type="curve" smooth="yes"/>
      <point x="1963" y="1181"/>
      <point x="2040" y="1074"/>
      <point x="2040" y="763" type="curve" smooth="yes"/>
      <point x="2040" y="408" type="line" smooth="yes"/>
      <point x="2040" y="91"/>
      <point x="1960" y="-20"/>
      <point x="1729" y="-20" type="curve" smooth="yes"/>
      <point x="1499" y="-20"/>
      <point x="1419" y="91"/>
      <point x="1419" y="408" type="curve" smooth="yes"/>
    </contour>
    <contour>
      <point x="2265" y="763" type="line" smooth="yes"/>
      <point x="2265" y="1074"/>
      <point x="2342" y="1181"/>
      <point x="2576" y="1181" type="curve" smooth="yes"/>
      <point x="2809" y="1181"/>
      <point x="2886" y="1074"/>
      <point x="2886" y="763" type="curve" smooth="yes"/>
      <point x="2886" y="408" type="line" smooth="yes"/>
      <point x="2886" y="91"/>
      <point x="2806" y="-20"/>
      <point x="2576" y="-20" type="curve" smooth="yes"/>
      <point x="2345" y="-20"/>
      <point x="2265" y="91"/>
      <point x="2265" y="408" type="curve" smooth="yes"/>
    </contour>
    <contour>
      <point x="2701" y="832" type="line" smooth="yes"/>
      <point x="2701" y="974"/>
      <point x="2674" y="1020"/>
      <point x="2576" y="1020" type="curve" smooth="yes"/>
      <point x="2478" y="1020"/>
      <point x="2451" y="973"/>
      <point x="2451" y="832" type="curve" smooth="yes"/>
      <point x="2451" y="336" type="line" smooth="yes"/>
      <point x="2451" y="191"/>
      <point x="2479" y="141"/>
      <point x="2576" y="141" type="curve" smooth="yes"/>
      <point x="2673" y="141"/>
      <point x="2701" y="191"/>
      <point x="2701" y="336" type="curve" smooth="yes"/>
    </contour>
  </outline>
</glyph>
<glyph name="guilsinglright" format="1">
  <advance width="727"/>
  <unicode hex="203A"/>
  <outline>
    <contour>
      <point x="153" y="903" type="line"/>
      <point x="153" y="1110" type="line"/>
      <point x="631" y="839" type="line"/>
      <point x="631" y="657" type="line"/>
      <point x="153" y="372" type="line"/>
      <point x="153" y="586" type="line"/>
      <point x="465" y="749" type="line"/>
    </contour>
  </outline>
</glyph>
<glyph name="uni2074" format="1">
  <advance width="855"/>
  <unicode hex="2074"/>
  <outline>
    <contour>
      <point x="448" y="1760" type="line"/>
      <point x="619" y="1760" type="line"/>
      <point x="619" y="914" type="line"/>
      <point x="711" y="914" type="line"/>
      <point x="711" y="802" type="line"/>
      <point x="619" y="802" type="line"/>
      <point x="619" y="578" type="line"/>
      <point x="483" y="578" type="line"/>
      <point x="483" y="802" type="line"/>
      <point x="188" y="802" type="line"/>
      <point x="188" y="899" type="line"/>
    </contour>
    <contour>
      <point x="483" y="914" type="line"/>
      <point x="483" y="1525" type="line"/>
      <point x="316" y="914" type="line"/>
    </contour>
  </outline>
</glyph>
<glyph name="Euro" format="1">
  <advance width="1076"/>
  <unicode hex="20AC"/>
  <outline>
    <component base="C"/>
    <contour>
      <point x="23" y="1106" type="line"/>
      <point x="518" y="1106" type="line"/>
      <point x="518" y="966" type="line"/>
      <point x="254" y="966" type="line"/>
      <point x="254" y="869" type="line"/>
      <point x="518" y="869" type="line"/>
      <point x="518" y="721" type="line"/>
      <point x="23" y="721" type="line"/>
      <point x="23" y="869" type="line"/>
      <point x="164" y="869" type="line"/>
      <point x="164" y="966" type="line"/>
      <point x="23" y="966" type="line"/>
    </contour>
  </outline>
</glyph>
<glyph name="trademark" format="1">
  <advance width="1537"/>
  <unicode hex="2122"/>
  <outline>
    <contour>
      <point x="1206" y="1760" type="line"/>
      <point x="1413" y="1760" type="line"/>
      <point x="1413" y="475" type="line"/>
      <point x="1273" y="475" type="line"/>
      <point x="1273" y="1000" type="line"/>
      <point x="1285" y="1497" type="line"/>
      <point x="1115" y="475" type="line"/>
      <point x="966" y="475" type="line"/>
      <point x="789" y="1497" type="line"/>
      <point x="801" y="1000" type="line"/>
      <point x="801" y="475" type="line"/>
      <point x="661" y="475" type="line"/>
      <point x="661" y="1760" type="line"/>
      <point x="868" y="1760" type="line"/>
      <point x="1040" y="716" type="line"/>
    </contour>
    <contour>
      <point x="103" y="1760" type="line"/>
      <point x="531" y="1760" type="line"/>
      <point x="531" y="1634" type="line"/>
      <point x="398" y="1634" type="line"/>
      <point x="398" y="475" type="line"/>
      <point x="246" y="475" type="line"/>
      <point x="246" y="1634" type="line"/>
      <point x="103" y="1634" type="line"/>
    </contour>
  </outline>
</glyph>
<glyph name="product" format="1">
  <advance width="981"/>
  <unicode hex="220F"/>
  <outline>
    <contour>
      <point x="146" y="0" type="line"/>
      <point x="350" y="0" type="line"/>
      <point x="350" y="1598" type="line"/>
      <point x="631" y="1598" type="line"/>
      <point x="631" y="0" type="line"/>
      <point x="835" y="0" type="line"/>
      <point x="835" y="1760" type="line"/>
      <point x="146" y="1760" type="line"/>
    </contour>
  </outline>
</glyph>
<glyph name="summation" format="1">
  <advance width="716"/>
  <unicode hex="2211"/>
  <outline>
    <contour>
      <point x="116" y="1760" type="line"/>
      <point x="663" y="1760" type="line"/>
      <point x="663" y="1581" type="line"/>
      <point x="350" y="1581" type="line"/>
      <point x="588" y="880" type="line"/>
      <point x="350" y="185" type="line"/>
      <point x="663" y="185" type="line"/>
      <point x="663" y="0" type="line"/>
      <point x="116" y="0" type="line"/>
      <point x="116" y="181" type="line"/>
      <point x="361" y="881" type="line"/>
      <point x="116" y="1585" type="line"/>
    </contour>
  </outline>
</glyph>
<glyph name="radical" format="1">
  <advance width="1083"/>
  <unicode hex="221A"/>
  <outline>
    <contour>
      <point x="646" y="1760" type="line"/>
      <point x="1049" y="1760" type="line"/>
      <point x="1049" y="1619" type="line"/>
      <point x="832" y="1619" type="line"/>
      <point x="529" y="0" type="line"/>
      <point x="318" y="0" type="line"/>
      <point x="66" y="741" type="line"/>
      <point x="265" y="741" type="line"/>
      <point x="393" y="258" type="line"/>
    </contour>
  </outline>
</glyph>
<glyph name="approxequal" format="1">
  <advance width="1117"/>
  <unicode hex="2248"/>
  <outline>
    <contour>
      <point x="743" y="1062" type="curve"/>
      <point x="777" y="1066"/>
      <point x="814" y="1101"/>
      <point x="837" y="1177" type="curve"/>
      <point x="1001" y="1135" type="line"/>
      <point x="967" y="999"/>
      <point x="881" y="848"/>
      <point x="772" y="848" type="curve" smooth="yes"/>
      <point x="658" y="848"/>
      <point x="469" y="940"/>
      <point x="363" y="940" type="curve" smooth="yes"/>
      <point x="325" y="940"/>
      <point x="295" y="910"/>
      <point x="268" y="847" type="curve"/>
      <point x="119" y="925" type="line"/>
      <point x="170" y="1071"/>
      <point x="247" y="1150"/>
      <point x="349" y="1150" type="curve" smooth="yes"/>
      <point x="453" y="1150"/>
      <point x="679" y="1062"/>
    </contour>
    <contour>
      <point x="743" y="616" type="curve"/>
      <point x="777" y="620"/>
      <point x="814" y="655"/>
      <point x="837" y="731" type="curve"/>
      <point x="1001" y="689" type="line"/>
      <point x="967" y="553"/>
      <point x="881" y="402"/>
      <point x="772" y="402" type="curve" smooth="yes"/>
      <point x="658" y="402"/>
      <point x="469" y="494"/>
      <point x="363" y="494" type="curve" smooth="yes"/>
      <point x="325" y="494"/>
      <point x="295" y="464"/>
      <point x="268" y="401" type="curve"/>
      <point x="119" y="479" type="line"/>
      <point x="170" y="624"/>
      <point x="247" y="704"/>
      <point x="349" y="704" type="curve" smooth="yes"/>
      <point x="453" y="704"/>
      <point x="679" y="616"/>
    </contour>
  </outline>
</glyph>
<glyph name="greaterequal" format="1">
  <advance width="781"/>
  <unicode hex="2265"/>
  <outline>
    <contour>
      <point x="103" y="1039" type="line"/>
      <point x="103" y="1259" type="line"/>
      <point x="680" y="878" type="line"/>
      <point x="680" y="667" type="line"/>
      <point x="103" y="282" type="line"/>
      <point x="103" y="496" type="line"/>
      <point x="536" y="774" type="line"/>
    </contour>
    <contour>
      <point x="105" y="144" type="line"/>
      <point x="645" y="144" type="line"/>
      <point x="645" y="0" type="line"/>
      <point x="105" y="0" type="line"/>
    </contour>
  </outline>
</glyph>
<glyph name="lozenge" format="1">
  <advance width="921"/>
  <unicode hex="25CA"/>
  <outline>
    <contour>
      <point x="327" y="1760" type="line"/>
      <point x="588" y="1760" type="line"/>
      <point x="847" y="883" type="line"/>
      <point x="588" y="0" type="line"/>
      <point x="327" y="0" type="line"/>
      <point x="74" y="883" type="line"/>
    </contour>
    <contour>
      <point x="649" y="883" type="line"/>
      <point x="475" y="1571" type="line"/>
      <point x="443" y="1571" type="line"/>
      <point x="269" y="883" type="line"/>
      <point x="443" y="179" type="line"/>
      <point x="475" y="179" type="line"/>
    </contour>
  </outline>
</glyph>
<glyph name="uniFB00" format="1">
  <advance width="1246"/>
  <unicode hex="FB00"/>
  <outline>
    <contour>
      <point x="823" y="1515" type="line" smooth="yes"/>
      <point x="823" y="1688"/>
      <point x="894" y="1786"/>
      <point x="1055" y="1786" type="curve" smooth="yes"/>
      <point x="1134" y="1786"/>
      <point x="1198" y="1767"/>
      <point x="1204" y="1765" type="curve"/>
      <point x="1204" y="1622" type="line"/>
      <point x="1177" y="1626"/>
      <point x="1153" y="1628"/>
      <point x="1133" y="1628" type="curve" smooth="yes"/>
      <point x="1043" y="1628"/>
      <point x="1028" y="1588"/>
      <point x="1028" y="1523" type="curve" smooth="yes"/>
      <point x="1028" y="1442" type="line"/>
      <point x="1204" y="1442" type="line"/>
      <point x="1204" y="1291" type="line"/>
      <point x="1028" y="1291" type="line"/>
      <point x="1028" y="0" type="line"/>
      <point x="823" y="0" type="line"/>
      <point x="823" y="1291" type="line"/>
      <point x="405" y="1291" type="line"/>
      <point x="405" y="0" type="line"/>
      <point x="200" y="0" type="line"/>
      <point x="200" y="1291" type="line"/>
      <point x="71" y="1291" type="line"/>
      <point x="71" y="1442" type="line"/>
      <point x="200" y="1442" type="line"/>
      <point x="200" y="1515" type="line" smooth="yes"/>
      <point x="200" y="1688"/>
      <point x="271" y="1786"/>
      <point x="432" y="1786" type="curve" smooth="yes"/>
      <point x="511" y="1786"/>
      <point x="575" y="1767"/>
      <point x="581" y="1765" type="curve"/>
      <point x="581" y="1622" type="line"/>
      <point x="554" y="1626"/>
      <point x="530" y="1628"/>
      <point x="510" y="1628" type="curve" smooth="yes"/>
      <point x="420" y="1628"/>
      <point x="405" y="1588"/>
      <point x="405" y="1523" type="curve" smooth="yes"/>
      <point x="405" y="1442" type="line"/>
      <point x="823" y="1442" type="line"/>
    </contour>
  </outline>
</glyph>
<glyph name="uniFB03" format="1">
  <advance width="1749"/>
  <unicode hex="FB03"/>
  <outline>
    <contour>
      <point x="823" y="1547" type="line" smooth="yes"/>
      <point x="823" y="1720"/>
      <point x="894" y="1818"/>
      <point x="1055" y="1818" type="curve" smooth="yes"/>
      <point x="1134" y="1818"/>
      <point x="1198" y="1799"/>
      <point x="1204" y="1797" type="curve"/>
      <point x="1204" y="1654" type="line"/>
      <point x="1177" y="1658"/>
      <point x="1153" y="1660"/>
      <point x="1133" y="1660" type="curve" smooth="yes"/>
      <point x="1043" y="1660"/>
      <point x="1028" y="1620"/>
      <point x="1028" y="1555" type="curve" smooth="yes"/>
      <point x="1028" y="1500" type="line"/>
      <point x="1601" y="1500" type="line"/>
      <point x="1601" y="0" type="line"/>
      <point x="1396" y="0" type="line"/>
      <point x="1396" y="1349" type="line"/>
      <point x="1028" y="1349" type="line"/>
      <point x="1028" y="0" type="line"/>
      <point x="823" y="0" type="line"/>
      <point x="823" y="1349" type="line"/>
      <point x="405" y="1349" type="line"/>
      <point x="405" y="0" type="line"/>
      <point x="200" y="0" type="line"/>
      <point x="200" y="1349" type="line"/>
      <point x="71" y="1349" type="line"/>
      <point x="71" y="1500" type="line"/>
      <point x="200" y="1500" type="line"/>
      <point x="200" y="1547" type="line" smooth="yes"/>
      <point x="200" y="1720"/>
      <point x="271" y="1818"/>
      <point x="432" y="1818" type="curve" smooth="yes"/>
      <point x="511" y="1818"/>
      <point x="575" y="1799"/>
      <point x="581" y="1797" type="curve"/>
      <point x="581" y="1654" type="line"/>
      <point x="554" y="1658"/>
      <point x="530" y="1660"/>
      <point x="510" y="1660" type="curve" smooth="yes"/>
      <point x="420" y="1660"/>
      <point x="405" y="1620"/>
      <point x="405" y="1555" type="curve" smooth="yes"/>
      <point x="405" y="1500" type="line"/>
      <point x="823" y="1500" type="line"/>
    </contour>
    <contour>
      <point x="1396" y="1800" type="line"/>
      <point x="1601" y="1800" type="line"/>
      <point x="1601" y="1611" type="line"/>
      <point x="1396" y="1611" type="line"/>
    </contour>
  </outline>
</glyph>
<glyph name="uniFB04" format="1">
  <advance width="1747"/>
  <unicode hex="FB04"/>
  <outline>
    <contour>
      <point x="823" y="1515" type="line" smooth="yes"/>
      <point x="823" y="1716"/>
      <point x="972" y="1796"/>
      <point x="1166" y="1796" type="curve" smooth="yes"/>
      <point x="1251" y="1796"/>
      <point x="1303" y="1788"/>
      <point x="1599" y="1725" type="curve"/>
      <point x="1599" y="0" type="line"/>
      <point x="1394" y="0" type="line"/>
      <point x="1394" y="1622" type="line"/>
      <point x="1327" y="1636"/>
      <point x="1268" y="1642"/>
      <point x="1217" y="1642" type="curve" smooth="yes"/>
      <point x="1097" y="1642"/>
      <point x="1028" y="1603"/>
      <point x="1028" y="1523" type="curve" smooth="yes"/>
      <point x="1028" y="1442" type="line"/>
      <point x="1204" y="1442" type="line"/>
      <point x="1204" y="1291" type="line"/>
      <point x="1028" y="1291" type="line"/>
      <point x="1028" y="0" type="line"/>
      <point x="823" y="0" type="line"/>
      <point x="823" y="1291" type="line"/>
      <point x="405" y="1291" type="line"/>
      <point x="405" y="0" type="line"/>
      <point x="200" y="0" type="line"/>
      <point x="200" y="1291" type="line"/>
      <point x="71" y="1291" type="line"/>
      <point x="71" y="1442" type="line"/>
      <point x="200" y="1442" type="line"/>
      <point x="200" y="1515" type="line" smooth="yes"/>
      <point x="200" y="1688"/>
      <point x="271" y="1786"/>
      <point x="432" y="1786" type="curve" smooth="yes"/>
      <point x="511" y="1786"/>
      <point x="575" y="1767"/>
      <point x="581" y="1765" type="curve"/>
      <point x="581" y="1622" type="line"/>
      <point x="554" y="1626"/>
      <point x="530" y="1628"/>
      <point x="510" y="1628" type="curve" smooth="yes"/>
      <point x="420" y="1628"/>
      <point x="405" y="1588"/>
      <point x="405" y="1523" type="curve" smooth="yes"/>
      <point x="405" y="1442" type="line"/>
      <point x="823" y="1442" type="line"/>
    </contour>
  </outline>
</glyph>
<glyph name=".notdef" format="1">
  <advance width="1024"/>
  <outline>
    <component base="N" xScale="0.613448" yScale="0.777908" xOffset="204" yOffset="196"/>
    <contour>
      <point x="102" y="1760" type="line"/>
      <point x="922" y="1760" type="line"/>
      <point x="922" y="0" type="line"/>
      <point x="102" y="0" type="line"/>
    </contour>
    <contour>
      <point x="820" y="102" type="line"/>
      <point x="820" y="1658" type="line"/>
      <point x="204" y="1658" type="line"/>
      <point x="204" y="102" type="line"/>
    </contour>
  </outline>
</glyph>
